<svg width="117" height="57" viewBox="0 0 117 57" fill="none" xmlns="http://www.w3.org/2000/svg">
<path d="M54.1946 56.1505C53.9311 56.1603 53.6681 56.1205 53.4193 56.0332C52.7568 55.7687 51.2616 55.7112 50.7417 55.7112C50.6406 55.7111 50.5423 55.6777 50.462 55.6162C50.3818 55.5546 50.324 55.4684 50.2977 55.3707L49.856 53.7604H49.534L49.228 55.6721C49.2114 55.7818 49.1557 55.8818 49.0711 55.9536C48.9866 56.0255 48.8789 56.0644 48.768 56.0631H41.8392C41.7728 56.0631 41.7071 56.0487 41.6468 56.0209C41.5864 55.9931 41.5328 55.9526 41.4896 55.9021L40.4222 54.6553C40.3509 54.572 40.3118 54.4659 40.3118 54.3562V53.8962L37.4961 53.7696V55.2465C37.4963 55.3646 37.451 55.4783 37.3696 55.5639C37.2883 55.6496 37.1771 55.7007 37.0591 55.7066L29.9049 56.0631C29.8066 56.0631 29.711 56.0316 29.6319 55.9732C29.5528 55.9148 29.4945 55.8327 29.4655 55.7388L28.6673 53.16L25.7412 52.7437V54.1699C25.7413 54.2394 25.7255 54.308 25.6953 54.3706C25.665 54.4331 25.6209 54.488 25.5664 54.5311C25.4852 54.5952 25.3847 54.63 25.2812 54.63C25.2453 54.6345 25.2089 54.6345 25.173 54.63L17.6968 52.8495C17.6188 52.831 17.5469 52.7923 17.4884 52.7375C17.4299 52.6826 17.3868 52.6134 17.3633 52.5366L16.7123 50.4203L15.3159 49.7854L14.4579 51.2139C14.4179 51.2831 14.3607 51.3407 14.2917 51.3811C14.2227 51.4214 14.1444 51.4431 14.0645 51.444C14.0038 51.4439 13.9437 51.4322 13.8874 51.4095L9.6133 49.6175C9.52935 49.5825 9.45767 49.5233 9.40731 49.4476C9.35695 49.3718 9.33017 49.2829 9.33036 49.1919V48.6467C7.79831 48.1659 1.77363 45.9116 0.791367 40.0088C0.0506468 35.5714 0.575132 32.2842 2.40163 29.9562C4.27413 27.5569 7.58207 26.1468 12.2311 25.7672C21.2026 23.9867 38.7337 20.2256 41.0663 18.7165C42.7134 17.6515 51.142 12.662 58.5814 8.26135C64.8568 4.54854 70.7734 1.04277 71.5072 0.559693C71.5794 0.511072 71.664 0.48395 71.751 0.48148C71.8173 0.481191 71.8828 0.495224 71.9432 0.52262C72.0035 0.550015 72.0573 0.590126 72.1007 0.640206C72.5607 1.18309 76.6623 5.98858 76.6623 7.88639V9.75659C77.6745 10.3271 81.8819 12.5953 84.8332 12.5953C85.2389 12.6055 85.6437 12.5543 86.034 12.4434C87.8329 11.8752 89.8389 9.45294 91.4537 7.52063C93.0686 5.58831 93.9266 4.58765 94.7203 4.58765C95.1325 4.57094 95.5434 4.64465 95.9241 4.80361C96.3048 4.96257 96.6461 5.20292 96.924 5.5078C97.5221 5.61362 99.038 6.1427 99.6592 8.82724C100.223 8.39707 101.039 7.87488 101.683 7.87488C101.903 7.86933 102.119 7.93734 102.295 8.06811C102.325 8.08898 102.351 8.11375 102.374 8.14173C103.977 10.0487 107.658 14.6449 107.457 15.7951C107.445 15.8676 107.416 15.9363 107.372 15.9952C107.329 16.055 106.293 17.4168 103.443 19.6275L104.133 21.8474H104.508C104.613 21.8475 104.715 21.8834 104.796 21.9491C104.878 22.0147 104.934 22.1063 104.957 22.2085C105.017 22.48 105.265 23.7475 104.849 24.5089C105.132 25.2266 105.769 26.968 105.739 28.1228C106.316 28.293 107.059 28.9187 107.441 30.8832L109.857 36.2293C110.473 36.6342 112.406 37.9546 112.769 38.8632C112.784 38.9018 112.794 38.942 112.799 38.9828C112.813 39.114 113.105 41.902 111.78 43.1879C112.265 43.7354 112.93 44.6188 112.898 45.3503L116.072 46.6201C116.158 46.654 116.231 46.7127 116.282 46.7885C116.334 46.8644 116.362 46.9539 116.362 47.0457C116.362 47.1676 116.344 49.7739 114.846 50.5399L114.924 50.8528C114.953 50.9664 114.937 51.0866 114.879 51.1887C114.822 51.2909 114.728 51.3674 114.616 51.4026C114.402 51.4693 109.362 53.0381 107.894 53.0381C107.808 53.0396 107.722 53.0335 107.637 53.0197C107.575 53.0096 107.515 52.9868 107.462 52.9528C107.409 52.9188 107.364 52.8742 107.329 52.8219L106.07 50.9333L104.561 51.184L104.251 53.5166C104.237 53.6172 104.191 53.7106 104.119 53.7821C104.047 53.8537 103.953 53.8995 103.853 53.9123L99.6062 54.4552L96.7722 54.9865C96.7439 54.9888 96.7154 54.9888 96.6871 54.9865C96.5796 54.9868 96.4754 54.9493 96.3926 54.8807C96.3407 54.8375 96.2989 54.7833 96.2703 54.7221C96.2417 54.6608 96.2269 54.5941 96.227 54.5265V54.1308L94.4373 54.2596L94.0278 54.8025C93.9886 54.8552 93.9385 54.8989 93.881 54.9307C93.8235 54.9624 93.7598 54.9815 93.6943 54.9865L89.0659 55.3408H89.0245C88.9166 55.3429 88.8113 55.3069 88.7272 55.2392C88.6431 55.1715 88.5855 55.0764 88.5644 54.9704C88.3551 53.9261 87.9618 52.8541 87.7248 52.6701H85.6154C85.7189 53.7443 85.6798 55.12 84.8539 55.327C84.8171 55.3362 84.7792 55.3409 84.7412 55.3408H79.4067C79.3352 55.3408 79.2648 55.3242 79.2009 55.2922C79.137 55.2603 79.0815 55.2139 79.0386 55.1568C78.8753 54.9382 78.1875 53.9813 78.0586 53.1577L75.5765 52.8978C75.5282 53.6891 75.335 54.9382 74.6265 55.2925C74.5839 55.3142 74.5381 55.329 74.4908 55.3362C73.3145 55.5162 72.1284 55.6237 70.939 55.6583C70.1062 55.6583 69.3149 55.5777 69.1677 54.9934C69.1355 54.8623 69.0849 54.6852 69.0274 54.4782C68.703 53.3418 68.519 52.5712 68.5236 52.049L67.937 51.9524C67.8585 51.9392 67.7848 51.9059 67.7231 51.8557C67.7093 51.8557 66.3198 50.7585 64.0103 50.7585C62.4276 50.7585 60.7897 51.2553 59.122 52.2376C59.329 52.953 59.6257 54.2573 59.2485 54.9083C59.1883 55.0171 59.105 55.1114 59.0044 55.1845C58.9039 55.2576 58.7885 55.3078 58.6665 55.3316C58.4986 55.3661 58.2478 55.4236 57.9465 55.4949C56.8653 55.7595 55.2297 56.1505 54.1946 56.1505V56.1505Z" fill="white"/>
<path d="M71.7525 0.941769C71.7525 0.941769 76.2037 6.10611 76.2037 7.8866V10.0213C76.2037 10.0213 81.306 13.0555 84.8347 13.0555C85.2878 13.0629 85.7393 13.0009 86.1735 12.8715C89.5574 11.8018 93.3047 5.03644 94.7217 5.03644C96.1388 5.03643 96.6794 5.92668 96.6794 5.92668C96.6794 5.92668 98.8164 5.92668 99.3501 9.66709C99.3501 9.66709 100.832 8.31907 101.685 8.31907C101.805 8.314 101.923 8.34967 102.021 8.42029C102.021 8.42029 107.185 14.652 107.006 15.7194C107.006 15.7194 105.938 17.1433 102.911 19.4598L103.801 22.3076H104.514C104.514 22.3076 104.869 23.9179 104.335 24.4447C104.335 24.4447 105.582 27.472 105.225 28.5394C105.269 28.5294 105.314 28.5248 105.359 28.5256C105.695 28.5256 106.578 28.7556 107.006 31.033L109.499 36.5539C109.499 36.5539 111.991 38.1641 112.347 39.0452C112.347 39.0452 112.704 42.2519 111.1 43.1421C111.1 43.1421 112.881 44.9226 112.347 45.6334L115.908 47.0574C115.908 47.0574 115.908 49.9075 114.298 50.2641L114.477 50.9749C114.477 50.9749 109.311 52.5852 107.894 52.5852C107.833 52.5904 107.772 52.5904 107.712 52.5852L106.288 50.4481L104.151 50.8047L103.794 53.4754L99.5203 54.0091L96.6794 54.5405V53.6433L94.1858 53.8228L93.6521 54.5405L89.026 54.8901C89.026 54.8901 88.4923 52.2194 87.7792 52.2194H85.1154C85.1154 52.2194 85.4719 54.713 84.7588 54.8901H79.4081C79.4081 54.8901 78.3408 53.4662 78.5179 52.7531L75.1364 52.3965C75.1364 52.3965 75.1364 54.5336 74.4232 54.8901C73.2699 55.0669 72.1068 55.1729 70.9405 55.2076C70.2297 55.2076 69.6753 55.1271 69.6155 54.8901C69.4383 54.177 68.7252 52.0423 69.0818 51.6857L68.0144 51.5063C68.0144 51.5063 66.5307 50.3078 64.0117 50.3078C62.528 50.3078 60.6877 50.7219 58.576 52.0423C58.576 52.0423 59.4662 54.713 58.576 54.8901C57.8329 55.0397 55.4705 55.6861 54.2052 55.6861C54.0003 55.6944 53.7955 55.6663 53.6002 55.6033C52.71 55.2467 50.7524 55.2467 50.7524 55.2467L50.2187 53.2868H49.149L48.7948 55.6033H41.8407L40.7734 54.3565V53.4662L37.0376 53.2868V55.2467L29.9064 55.6033L29.0161 52.7531L25.278 52.2194V54.177L17.7995 52.3965L17.0864 50.0824L15.1288 49.1921L14.0614 50.9726L9.78732 49.1921V48.3019C9.78732 48.3019 2.3134 46.3443 1.24603 39.9331C0.178655 33.522 1.24603 27.1154 12.2878 26.2252C12.2878 26.2252 38.2821 21.0608 41.3093 19.094C44.3366 17.1272 70.1491 2.00914 71.7525 0.941769ZM71.7525 0.0216189C71.5708 0.0214419 71.3931 0.0750709 71.2418 0.175744C70.5287 0.651921 64.6075 4.15539 58.3367 7.8659C50.895 12.2688 42.4641 17.2606 40.8056 18.3303C38.6984 19.6944 22.5452 23.2554 12.1567 25.3119C7.38803 25.7053 3.98117 27.1729 2.03506 29.6826C0.130347 32.1072 -0.424043 35.5141 0.337381 40.0849C1.30354 45.8796 6.88885 48.295 8.87177 48.9782V49.1921C8.87146 49.3731 8.92455 49.5502 9.02439 49.7012C9.12423 49.8522 9.26639 49.9704 9.43306 50.041L13.7072 51.8214C13.8187 51.8681 13.9383 51.8923 14.0591 51.8928C14.2184 51.8932 14.375 51.8523 14.5137 51.7741C14.6524 51.6959 14.7684 51.583 14.8504 51.4465L15.4945 50.3699L16.3342 50.7495L16.9254 52.668C16.9722 52.8211 17.0581 52.9594 17.1747 53.0691C17.2913 53.1788 17.4345 53.2562 17.5902 53.2937L25.0756 55.0742C25.1458 55.0898 25.2176 55.0975 25.2895 55.0972C25.5336 55.0972 25.7676 55.0002 25.9402 54.8277C26.1127 54.6551 26.2097 54.4211 26.2097 54.177V53.2799L28.3237 53.5835L29.0392 55.8839C29.0975 56.0713 29.2143 56.2351 29.3724 56.3514C29.5305 56.4677 29.7216 56.5304 29.9179 56.5303H29.9639L37.0951 56.1738C37.331 56.1619 37.5534 56.0598 37.7162 55.8885C37.8789 55.7172 37.9695 55.4899 37.9692 55.2536V54.2598L39.8693 54.3496V54.3634C39.8719 54.5838 39.9535 54.7961 40.0994 54.9615L41.1667 56.2083C41.2521 56.3081 41.3579 56.3885 41.4769 56.444C41.5959 56.4996 41.7255 56.529 41.8568 56.5303H48.8017C49.0236 56.5328 49.2389 56.455 49.408 56.3113C49.5771 56.1676 49.6885 55.9676 49.7218 55.7482L49.8046 55.2076L49.8828 55.4951C49.9359 55.69 50.0515 55.8621 50.212 55.9847C50.3725 56.1073 50.5688 56.1738 50.7708 56.1738C51.4609 56.1738 52.7514 56.252 53.2782 56.4636C53.581 56.5731 53.9019 56.6239 54.2237 56.6131C55.314 56.6131 56.9841 56.2198 58.0814 55.9598C58.3758 55.8908 58.6289 55.831 58.7853 55.7988C58.9714 55.7621 59.1473 55.6855 59.301 55.5743C59.4547 55.4631 59.5825 55.32 59.6755 55.1547C60.0712 54.4646 59.9056 53.3581 59.6893 52.4771C61.1777 51.6512 62.6361 51.2349 64.0393 51.2349C66.1741 51.2349 67.4508 52.2194 67.4623 52.2286C67.5855 52.3295 67.7331 52.3961 67.8902 52.4218L68.1202 52.4587C68.2326 53.191 68.4003 53.9139 68.6217 54.621C68.6792 54.8234 68.7298 55.0006 68.7597 55.1202C69.0128 56.1346 70.3401 56.1346 70.9773 56.1346C72.1907 56.1008 73.4007 55.9909 74.6004 55.8057C74.6947 55.7914 74.7862 55.7627 74.8718 55.7206C75.6286 55.341 75.9254 54.3404 76.0358 53.4202L77.722 53.5973C77.9457 54.2616 78.2793 54.8837 78.7088 55.4376C78.7945 55.5519 78.9057 55.6447 79.0335 55.7086C79.1612 55.7724 79.3021 55.8057 79.445 55.8057H84.7864C84.864 55.8062 84.9413 55.7969 85.0165 55.7781C86.1667 55.4928 86.1666 53.9815 86.1666 53.4777V53.1304H87.5607C87.8473 53.7459 88.0552 54.3951 88.1795 55.0627C88.2214 55.2709 88.3342 55.4583 88.4985 55.5929C88.6629 55.7275 88.8688 55.801 89.0812 55.8011H89.1502L93.7234 55.4606C93.8538 55.4504 93.9806 55.4125 94.0952 55.3495C94.2099 55.2864 94.3097 55.1996 94.3882 55.0949L94.6711 54.7199L95.7638 54.6417C95.7883 54.8682 95.8959 55.0776 96.0659 55.2293C96.2359 55.381 96.4561 55.4643 96.684 55.4629C96.7411 55.4633 96.7981 55.4579 96.8542 55.4468L99.6744 54.9178L103.921 54.3887C104.122 54.363 104.31 54.2715 104.454 54.1284C104.597 53.9853 104.69 53.7986 104.717 53.5973L104.984 51.6006L105.862 51.4534L106.957 53.0959C107.027 53.2002 107.118 53.2892 107.224 53.3573C107.329 53.4253 107.448 53.471 107.572 53.4915C107.682 53.51 107.793 53.5184 107.905 53.5168C109.419 53.5168 114.22 52.0308 114.763 51.8606C114.984 51.7916 115.171 51.6418 115.287 51.4409C115.402 51.2401 115.438 51.003 115.386 50.7771C116.787 49.7603 116.833 47.3771 116.833 47.0643C116.833 46.8806 116.778 46.7012 116.675 46.5492C116.572 46.3971 116.426 46.2792 116.256 46.2108L113.352 45.0491C113.24 44.5205 113.01 44.0238 112.681 43.5953C112.586 43.4642 112.49 43.3377 112.396 43.2203C113.532 41.7435 113.302 39.2775 113.267 38.9509C113.257 38.8717 113.236 38.7943 113.205 38.7208C112.821 37.7593 111.135 36.5493 110.231 35.9466L107.889 30.7523C107.523 28.912 106.829 28.123 106.194 27.8032C106.127 26.6922 105.66 25.3142 105.356 24.5206C105.704 23.6534 105.499 22.5032 105.412 22.1075C105.366 21.9034 105.252 21.7209 105.089 21.59C104.926 21.4592 104.724 21.3877 104.514 21.3875H104.478L103.978 19.8048C106.686 17.6724 107.696 16.3543 107.74 16.283C107.828 16.1653 107.887 16.028 107.912 15.8827C108.004 15.326 107.875 14.5439 105.315 11.1278C104.05 9.42785 102.743 7.84289 102.729 7.84289C102.684 7.78676 102.631 7.73654 102.573 7.69337C102.315 7.49924 102.001 7.39573 101.678 7.39892C101.112 7.39892 100.473 7.70717 99.9229 8.05913C99.2328 5.87837 97.8871 5.25497 97.1624 5.06864C96.8424 4.74876 96.4599 4.49828 96.0388 4.33284C95.6177 4.1674 95.167 4.09055 94.7148 4.10708C93.7142 4.10708 92.8331 5.11235 91.094 7.20569C89.6034 8.99998 87.5607 11.4568 85.8906 11.9836C85.5456 12.0845 85.1873 12.1326 84.8278 12.1262C82.1709 12.1262 78.4029 10.1847 77.117 9.47616V7.8659C77.117 5.89678 73.5399 1.59277 72.4426 0.320668C72.357 0.221258 72.2512 0.141298 72.1321 0.0861497C72.0131 0.0310017 71.8837 0.0019407 71.7525 0.000915527V0.0216189Z" fill="#A3A3A3"/>
<path d="M98.6263 26.3308C98.4514 26.3308 98.042 26.3308 81.6564 16.1102C81.3689 15.9377 74.4539 11.7763 72.8184 9.77959C71.3231 7.93929 65.6205 6.20711 65.563 6.1887C65.4824 6.16423 65.41 6.11809 65.3538 6.05531C65.2976 5.99253 65.2598 5.91554 65.2444 5.83271C65.2289 5.74988 65.2365 5.66441 65.2664 5.58562C65.2962 5.50682 65.3471 5.43773 65.4135 5.38587C65.4526 5.35597 69.193 2.43909 71.5555 0.667805C71.649 0.597645 71.7657 0.565731 71.882 0.578549C71.9982 0.591368 72.1052 0.647957 72.1812 0.736816C73.2324 1.97442 76.6623 6.145 76.6623 7.88638V9.75658C77.6745 10.3271 81.8818 12.5952 84.8332 12.5952C85.2389 12.6055 85.6437 12.5543 86.034 12.4434C87.8329 11.8752 89.8388 9.45293 91.4537 7.52062C93.0686 5.58831 93.9266 4.58764 94.7202 4.58764C95.1325 4.57093 95.5433 4.64465 95.924 4.8036C96.3047 4.96256 96.646 5.20291 96.924 5.50779C97.5221 5.61361 99.038 6.1427 99.6591 8.82723C100.223 8.39706 101.039 7.87488 101.683 7.87488C101.903 7.86933 102.119 7.93733 102.295 8.06811C102.325 8.08898 102.351 8.11374 102.374 8.14172C102.521 8.32115 106.022 12.5561 107.112 14.6265C107.144 14.6869 107.162 14.7537 107.165 14.822L107.214 16.0182C107.218 16.1363 107.177 16.2517 107.099 16.3403C105.984 17.5515 104.761 18.6574 103.443 19.6436L104.133 21.8635H104.508C104.613 21.8636 104.715 21.8995 104.796 21.9652C104.878 22.0308 104.934 22.1224 104.957 22.2246C105.029 22.5792 105.071 22.9394 105.081 23.3012C105.083 23.3937 105.057 23.4847 105.007 23.5623C104.956 23.6398 104.884 23.7004 104.798 23.736C99.788 25.8224 99.015 26.1928 98.9 26.2664C98.8194 26.324 98.723 26.3553 98.624 26.3561L98.6263 26.3308Z" fill="#A3A3A3"/>
<path d="M71.8315 1.03588C72.4227 1.726 76.2022 6.24393 76.2022 7.8864V10.0211C76.2022 10.0211 81.3045 13.0553 84.8332 13.0553C85.2862 13.0616 85.7375 12.9996 86.172 12.8713C89.5559 11.8016 93.3032 5.03623 94.7202 5.03623C96.1373 5.03623 96.6779 5.92648 96.6779 5.92648C96.6779 5.92648 98.8149 5.92648 99.3486 9.66689C99.3486 9.66689 100.83 8.31887 101.683 8.31887C101.803 8.31486 101.922 8.35043 102.019 8.42009C102.019 8.42009 105.626 12.7724 106.705 14.8243L106.753 16.0205C106.293 16.5542 105.12 17.7688 102.91 19.4711L103.8 22.3189H104.513C104.579 22.644 104.617 22.9742 104.626 23.3058C102.194 24.3203 98.7505 25.7649 98.6447 25.8799C98.1846 25.8799 81.9164 15.7284 81.9164 15.7284C81.9164 15.7284 74.7852 11.4566 73.191 9.49666C71.5969 7.53674 65.6964 5.74935 65.6964 5.74935C65.6964 5.74935 69.4437 2.82558 71.8315 1.03588V1.03588ZM71.8315 0.115734C71.6324 0.115734 71.4387 0.180308 71.2794 0.299764C68.9123 2.07335 65.1696 4.99483 65.1305 5.02243C64.9964 5.12588 64.8935 5.26431 64.8331 5.42249C64.7726 5.58067 64.757 5.75247 64.7879 5.91896C64.8188 6.08545 64.8951 6.24018 65.0083 6.36611C65.1215 6.49204 65.2673 6.58429 65.4296 6.63269C66.9915 7.10427 71.2955 8.64552 72.4641 10.0833C74.1135 12.103 80.6442 16.0527 81.4195 16.5243C81.6081 16.6439 85.6084 19.1375 89.6111 21.5989C98.0834 26.8116 98.2536 26.8116 98.6286 26.8116C98.8116 26.8108 98.9905 26.7573 99.1439 26.6575C99.3003 26.5746 100.177 26.1652 104.98 24.1638C105.15 24.0928 105.295 23.9721 105.396 23.8174C105.497 23.6627 105.549 23.4813 105.546 23.2966C105.537 22.9045 105.491 22.5141 105.41 22.1303C105.365 21.9258 105.252 21.7428 105.088 21.6114C104.925 21.4801 104.722 21.4083 104.513 21.408H104.476L103.977 19.8046C105.223 18.854 106.382 17.7947 107.441 16.6393C107.599 16.4629 107.682 16.2317 107.671 15.9952L107.625 14.799C107.619 14.6625 107.583 14.529 107.52 14.408C106.408 12.2824 102.877 8.01292 102.728 7.84269C102.682 7.78656 102.63 7.73634 102.571 7.69317C102.314 7.49904 101.999 7.39553 101.677 7.39872C101.111 7.39872 100.471 7.70697 99.9214 8.05893C99.2313 5.87817 97.8855 5.25477 97.1609 5.06844C96.8409 4.74856 96.4584 4.49808 96.0373 4.33264C95.6162 4.1672 95.1655 4.09035 94.7133 4.10688C93.7127 4.10688 92.8316 5.11215 91.0925 7.20549C89.6019 8.99978 87.5592 11.4566 85.8891 11.9834C85.5441 12.0843 85.1858 12.1324 84.8263 12.126C82.1694 12.126 78.4014 10.1845 77.1155 9.47596V7.8657C77.1155 6.08751 74.24 2.43681 72.5262 0.419384C72.4386 0.322323 72.3314 0.24504 72.2116 0.192681C72.0918 0.140323 71.9622 0.114091 71.8315 0.115734V0.115734Z" fill="#A3A3A3"/>
<path d="M54.4798 33.9842C54.418 33.9842 54.3568 33.9718 54.2999 33.9477C54.243 33.9235 54.1916 33.8882 54.1486 33.8438C54.1057 33.7993 54.0721 33.7467 54.05 33.689C54.0278 33.6313 54.0175 33.5697 54.0197 33.508C54.0381 32.9904 54.2106 28.4242 54.5787 27.3246C55.0388 25.9812 64.4036 20.4235 66.6626 19.9013C66.9034 19.8472 67.1496 19.8209 67.3964 19.8231C69.867 19.8231 73.2945 22.1855 73.4372 22.2868C73.5007 22.3308 73.5522 22.3901 73.5867 22.4593C73.6213 22.5284 73.6379 22.6052 73.635 22.6824C73.6318 22.76 73.609 22.8354 73.5688 22.9018C73.5285 22.9681 73.4722 23.0233 73.4049 23.062L54.7098 33.9221C54.6399 33.9626 54.5606 33.984 54.4798 33.9842Z" fill="#636466"/>
<path d="M67.401 20.2831C69.7566 20.2831 73.1795 22.664 73.1795 22.664L54.4844 33.5241C54.4844 33.5241 54.6638 28.5392 55.0181 27.4718C55.3723 26.4044 64.4496 20.8835 66.7707 20.3406C66.9775 20.2945 67.189 20.2721 67.401 20.2739V20.2831ZM67.401 19.3538C67.1194 19.352 66.8385 19.3821 66.5636 19.4435C65.1834 19.7609 62.1032 21.4448 59.6832 22.9124C54.5212 26.0456 54.2382 26.8921 54.1462 27.1704C53.7667 28.3068 53.5964 32.6269 53.5665 33.4827C53.5609 33.6468 53.5993 33.8095 53.6778 33.9538C53.7562 34.0981 53.8719 34.2188 54.0127 34.3033C54.1536 34.3878 54.3145 34.433 54.4787 34.4344C54.6429 34.4357 54.8046 34.393 54.9467 34.3108L73.6419 23.4507C73.7761 23.3732 73.8886 23.263 73.9689 23.1304C74.0492 22.9977 74.0946 22.847 74.101 22.6921C74.1075 22.5372 74.0747 22.3832 74.0056 22.2443C73.9366 22.1055 73.8337 21.9864 73.7063 21.898C73.3267 21.6449 69.9659 19.363 67.401 19.363V19.3538Z" fill="#A3A3A3"/>
<path d="M76.844 40.7679C74.072 40.7679 59.8557 39.9122 56.6674 39.719C56.6929 39.828 56.6778 39.9426 56.6248 40.0413C56.5719 40.1399 56.4848 40.2159 56.3798 40.255C56.3281 40.2732 56.2737 40.2826 56.2188 40.2826C56.135 40.2825 56.0527 40.2596 55.9809 40.2162C55.9092 40.1728 55.8506 40.1107 55.8116 40.0364C55.3861 39.2221 50.875 35.2769 48.1307 32.9789C48.0585 32.9181 48.0067 32.8365 47.9824 32.7453C47.9581 32.6541 47.9625 32.5577 47.9949 32.469C48.0273 32.3803 48.0861 32.3038 48.1635 32.2497C48.2409 32.1957 48.333 32.1667 48.4274 32.1668H48.4965C48.635 32.1882 48.775 32.1982 48.9151 32.1967C53.9759 32.1967 72.1489 22.4385 78.2449 18.0057C80.6833 16.2344 83.0343 15.335 85.238 15.335C86.938 15.335 87.9663 15.894 88.1664 16.0136C96.2614 19.6804 101.992 21.4494 104.688 22.1786C104.776 22.2025 104.855 22.252 104.914 22.3208C104.974 22.3896 105.012 22.4746 105.024 22.5651C105.15 23.4277 105.095 24.0764 104.856 24.5043C105.139 25.2243 105.776 26.9657 105.744 28.1182C106.321 28.2884 107.064 28.9141 107.446 30.8786L107.906 31.8862C107.946 31.975 107.957 32.0744 107.937 32.1699C107.918 32.2654 107.868 32.3522 107.796 32.4176C103.533 36.2661 103.195 36.2868 102.937 36.2868H102.852C101.394 36.3098 78.6038 40.4873 77.3708 40.7334C77.1967 40.762 77.0203 40.7736 76.844 40.7679V40.7679Z" fill="#A3A3A3"/>
<path d="M85.2404 15.8066C86.991 15.8066 87.9525 16.4323 87.9525 16.4323C96.158 20.1497 101.962 21.9279 104.568 22.6433C104.642 23.1402 104.718 24.0696 104.338 24.4537C104.338 24.4537 105.585 27.481 105.228 28.5484C105.272 28.5384 105.317 28.5338 105.362 28.5346C105.698 28.5346 106.581 28.7646 107.009 31.042L107.487 32.1002C105.307 34.0693 103.245 35.8498 102.933 35.8498H102.857C101.437 35.8498 78.1483 40.1308 77.2742 40.3056C77.1337 40.3217 76.9923 40.3279 76.8509 40.324C73.7684 40.324 56.0877 39.2382 56.0877 39.2382L56.2235 39.8455C55.5955 38.6493 48.4321 32.65 48.4321 32.65C48.5943 32.674 48.7581 32.6856 48.9221 32.6845C54.3027 32.6845 72.846 22.5421 78.521 18.406C81.3413 16.3541 83.6278 15.8227 85.245 15.8227L85.2404 15.8066ZM85.245 14.9026C82.9446 14.9026 80.4993 15.8227 77.9804 17.663C75.0083 19.8231 68.9261 23.3657 63.1913 26.2756C56.3155 29.763 51.1143 31.7643 48.929 31.7643C48.812 31.7647 48.6952 31.757 48.5793 31.7413C48.5326 31.738 48.4857 31.738 48.439 31.7413C48.2499 31.741 48.0653 31.7991 47.9103 31.9074C47.7553 32.0158 47.6375 32.1694 47.5729 32.3471C47.5083 32.5249 47.5 32.7182 47.5492 32.9008C47.5984 33.0834 47.7027 33.2464 47.8478 33.3677C51.2685 36.2316 55.0342 39.6017 55.4183 40.2872C55.4964 40.4349 55.6133 40.5586 55.7564 40.6449C55.8994 40.7312 56.0633 40.7769 56.2304 40.7772C56.3393 40.7772 56.4475 40.7585 56.5501 40.722C56.6655 40.6793 56.7711 40.614 56.8608 40.5299C56.9505 40.4457 57.0224 40.3444 57.0723 40.232C60.9346 40.462 74.1802 41.2557 76.8555 41.2557C77.0578 41.2632 77.2604 41.2517 77.4605 41.2212C78.7763 40.9566 101.115 36.8712 102.824 36.7837H102.937C103.374 36.7837 103.692 36.7837 108.108 32.7972C108.255 32.6675 108.356 32.4945 108.397 32.3034C108.439 32.1123 108.418 31.913 108.338 31.7344L107.888 30.7522C107.522 28.9119 106.827 28.1228 106.192 27.8031C106.125 26.6943 105.659 25.3187 105.355 24.525C105.562 24.019 105.603 23.3403 105.479 22.5007C105.453 22.3234 105.376 22.1576 105.257 22.0236C105.138 21.8895 104.983 21.7931 104.81 21.7462C102.13 21.0216 96.4363 19.2618 88.3827 15.6157C88.086 15.4432 87.0025 14.8865 85.2404 14.8865L85.245 14.9026Z" fill="#A3A3A3"/>
<path d="M56.3063 40.6621C55.9382 40.6621 55.8784 40.4022 55.7703 39.9329C55.7449 39.8236 55.7604 39.7088 55.8137 39.6101C55.8671 39.5114 55.9548 39.4356 56.0601 39.3969C56.1111 39.3789 56.1648 39.3695 56.2188 39.3693C56.3031 39.3689 56.3858 39.3917 56.458 39.4351C56.5302 39.4785 56.5891 39.5409 56.6283 39.6155C56.6664 39.688 56.6942 39.7654 56.7111 39.8455C56.7847 40.2044 56.8077 40.3263 56.6651 40.4988C56.6221 40.5512 56.568 40.5934 56.5068 40.6224C56.4455 40.6514 56.3786 40.6666 56.3109 40.6667L56.3063 40.6621Z" fill="white"/>
<path d="M56.2189 39.8294C56.2382 39.8614 56.2522 39.8964 56.2603 39.9329C56.2994 40.1284 56.3132 40.2021 56.3109 40.2021C56.3086 40.2021 56.2649 40.0295 56.2189 39.8294ZM56.2189 38.9092C56.1104 38.9091 56.0029 38.9286 55.9014 38.9667C55.6916 39.0439 55.5171 39.1948 55.4104 39.3912C55.3037 39.5876 55.2722 39.8162 55.3217 40.0341L55.3861 40.3056C55.5564 41.0164 56.0394 41.1222 56.3063 41.1222C56.4422 41.1222 56.5765 41.0921 56.6994 41.034C56.8223 40.9759 56.9308 40.8914 57.0171 40.7863C57.2977 40.4459 57.2333 40.1238 57.1597 39.7535C57.133 39.6308 57.0896 39.5124 57.0309 39.4015C56.9527 39.2527 56.8353 39.1281 56.6913 39.0413C56.5474 38.9546 56.3824 38.9089 56.2143 38.9092H56.2189ZM8.18704 39.8593C8.12358 39.8598 8.06077 39.8465 8.00301 39.8202L2.3671 37.3358C2.29338 37.3032 2.2295 37.2519 2.18187 37.1869C2.13423 37.1219 2.1045 37.0455 2.09565 36.9654C1.23991 29.2201 7.23699 27.0577 7.2968 27.0347C7.34508 27.019 7.39557 27.0113 7.44632 27.0117C7.49879 27.0109 7.55098 27.0195 7.60045 27.037C7.91576 27.0897 8.23591 27.1074 8.5551 27.0899C9.53966 27.0899 10.8187 27.0117 10.8302 27.0117H10.8601C10.9821 26.9998 11.1038 27.0369 11.1985 27.1147C11.2932 27.1926 11.3531 27.3049 11.365 27.4269C11.3769 27.5489 11.3398 27.6707 11.262 27.7654C11.1841 27.8601 11.0718 27.92 10.9498 27.9319C10.5311 28.0147 9.96293 28.3689 9.53276 28.6772C12.7004 30.1678 24.2276 31.0627 28.688 31.2927C28.7869 31.2975 28.8816 31.334 28.958 31.3969C29.0345 31.4598 29.0886 31.5457 29.1124 31.6418C29.1361 31.7379 29.1283 31.8391 29.0899 31.9304C29.0516 32.0216 28.9849 32.0981 28.8996 32.1484C28.0199 32.6232 27.0892 32.9967 26.1254 33.2618C25.5411 33.4367 24.5151 33.5195 22.8864 33.5195C21.3682 33.5195 19.5739 33.4459 17.9935 33.3814C16.7421 33.3285 15.562 33.2802 14.773 33.2802C13.8414 33.2802 12.445 34.3867 10.844 36.3949C10.0255 37.4324 9.26963 38.5178 8.58041 39.6454C8.53849 39.7116 8.48035 39.766 8.41151 39.8034C8.34267 39.8409 8.2654 39.8601 8.18704 39.8593Z" fill="#A3A3A3"/>
<path d="M10.8578 27.4718C9.96752 27.6489 8.72302 28.7163 8.72302 28.7163C11.3938 30.8464 28.6627 31.7436 28.6627 31.7436C27.8158 32.1983 26.9207 32.5571 25.9942 32.8133C25.4007 32.9904 24.2551 33.0433 22.8887 33.0433C20.1582 33.0433 16.5581 32.8133 14.7776 32.8133C12.1069 32.8133 8.18933 39.3992 8.18933 39.3992L2.55341 36.9148C1.72758 29.4455 7.44631 27.4833 7.44631 27.4833C7.81168 27.5518 8.18372 27.578 8.55509 27.5615C9.56725 27.5615 10.8555 27.4833 10.8555 27.4833L10.8578 27.4718ZM10.8555 26.5631H10.8118C10.798 26.5631 9.53505 26.6414 8.56429 26.6414C8.28618 26.6511 8.00773 26.6388 7.73156 26.6045C7.64213 26.577 7.54908 26.563 7.45551 26.5631C7.35388 26.5631 7.2529 26.5794 7.15646 26.6114C5.95907 27.0853 4.88527 27.8256 4.01645 28.7761C2.67533 30.2184 1.17319 32.8225 1.64016 37.0275C1.66126 37.1841 1.72228 37.3325 1.81736 37.4586C1.91244 37.5847 2.03838 37.6842 2.18305 37.7476L7.82127 40.2412C8.0254 40.3286 8.25428 40.3393 8.46568 40.2712C8.67707 40.2032 8.85671 40.0609 8.97146 39.8708C9.65119 38.7589 10.3971 37.6888 11.2051 36.6664C13.3767 33.9427 14.4832 33.7334 14.7684 33.7334C15.5459 33.7334 16.7214 33.7794 17.9682 33.8323C19.5532 33.8967 21.3498 33.9703 22.8795 33.9703C24.5519 33.9703 25.6216 33.8829 26.2496 33.6943C27.2504 33.4222 28.2167 33.0363 29.1296 32.5441C29.2982 32.4425 29.4298 32.2895 29.505 32.1076C29.5802 31.9257 29.5951 31.7244 29.5474 31.5335C29.4998 31.3425 29.3922 31.1718 29.2404 31.0465C29.0886 30.9211 28.9006 30.8478 28.7041 30.8372C28.6604 30.8372 24.3518 30.6072 19.7763 30.1264C14.5568 29.5766 11.8998 29.0061 10.5518 28.576C10.7025 28.4905 10.8643 28.4262 11.0326 28.385C11.2558 28.3397 11.4543 28.2132 11.5897 28.03C11.725 27.8467 11.7876 27.6198 11.7652 27.3931C11.7429 27.1664 11.6373 26.956 11.4688 26.8027C11.3003 26.6494 11.081 26.564 10.8532 26.5631H10.8555Z" fill="#A3A3A3"/>
<path d="M54.1945 56.1505C53.931 56.1603 53.6681 56.1205 53.4193 56.0332C52.7568 55.7687 51.2615 55.7112 50.7416 55.7112C50.6405 55.7111 50.5422 55.6777 50.462 55.6162C50.3817 55.5546 50.324 55.4684 50.2977 55.3707L49.856 53.7605H49.5339L49.228 55.6721C49.2114 55.7818 49.1556 55.8818 49.0711 55.9536C48.9865 56.0255 48.8789 56.0644 48.7679 56.0631H41.8392C41.7727 56.0631 41.7071 56.0487 41.6467 56.0209C41.5864 55.9931 41.5327 55.9526 41.4895 55.9021L40.4222 54.6553C40.3509 54.572 40.3117 54.4659 40.3117 54.3563V53.8962L37.4961 53.7697V55.2465C37.4962 55.3646 37.4509 55.4783 37.3696 55.5639C37.2882 55.6496 37.177 55.7007 37.059 55.7066L29.9048 56.0631C29.8066 56.0631 29.7109 56.0316 29.6318 55.9732C29.5528 55.9148 29.4945 55.8327 29.4655 55.7388L28.6672 53.1601L25.7412 52.7437V54.1699C25.7412 54.2394 25.7255 54.308 25.6952 54.3706C25.6649 54.4331 25.6209 54.488 25.5663 54.5311C25.4851 54.5952 25.3846 54.63 25.2811 54.63C25.2452 54.6345 25.2089 54.6345 25.173 54.63L17.6968 52.8495C17.6187 52.831 17.5469 52.7923 17.4884 52.7375C17.4299 52.6826 17.3867 52.6134 17.3632 52.5367L16.7122 50.4203L15.3159 49.7854L14.4578 51.2139C14.4179 51.2831 14.3606 51.3407 14.2916 51.3811C14.2227 51.4214 14.1444 51.4431 14.0645 51.444C14.0038 51.4439 13.9436 51.4322 13.8873 51.4095L9.61324 49.6175C9.5293 49.5825 9.45761 49.5233 9.40725 49.4476C9.35689 49.3718 9.33011 49.2829 9.3303 49.1919V48.6467C7.79825 48.1659 1.77357 45.9116 0.791309 40.0088C0.495857 38.4081 0.401578 36.7768 0.510663 35.1527C0.518694 35.0561 0.557051 34.9645 0.620258 34.8909C0.683465 34.8174 0.76829 34.7657 0.862621 34.7433C0.89716 34.7342 0.932721 34.7295 0.968438 34.7295C1.04834 34.7303 1.12663 34.752 1.1956 34.7924C1.26457 34.8327 1.32186 34.8903 1.3618 34.9595C2.32796 36.5468 3.98883 37.5313 6.29841 37.8856C13.1742 38.9437 16.2521 39.8386 17.8003 41.2579C19.3691 41.1981 30.1533 40.7265 35.9732 38.6194C36.0033 38.6093 36.034 38.6016 36.0653 38.5964C36.2844 38.5712 36.5049 38.5589 36.7255 38.5596C37.802 38.5596 40.3601 38.8517 41.0088 41.534C41.1307 41.6789 41.7656 42.2931 43.668 42.2931C45.0896 42.2931 46.8885 41.9526 48.9888 41.2855C51.7262 40.416 54.2612 38.9 56.7134 37.4324C59.7039 35.6496 62.5058 33.9657 65.0638 33.9657C65.9112 33.9599 66.7473 34.1605 67.4999 34.55C70.4904 36.1028 72.4825 36.7952 73.9409 36.7952C75.0129 36.7952 75.7812 36.411 76.3494 35.5852C76.6561 35.1196 76.9254 34.6304 77.1545 34.1222C77.7779 32.8178 78.3668 31.5917 80.5384 31.5917C81.4642 31.6143 82.3834 31.755 83.2735 32.0104C83.338 32.0288 89.779 33.7357 95.1688 33.7357C97.5451 33.7357 99.3601 33.4067 100.565 32.7626C102.903 31.5089 103.71 30.1103 104.359 28.9854C104.538 28.6749 104.708 28.3804 104.895 28.1159C104.937 28.0554 104.994 28.006 105.059 27.972C105.125 27.9379 105.198 27.9202 105.272 27.9203C105.332 27.9207 105.391 27.9324 105.447 27.9549C105.518 27.9842 105.58 28.0309 105.629 28.0906C106.217 28.2056 107.046 28.7807 107.455 30.8924L109.87 36.2385C110.487 36.6434 112.419 37.9638 112.783 38.8724C112.797 38.911 112.807 38.9512 112.813 38.9921C112.826 39.1232 113.119 41.9112 111.794 43.1971C112.279 43.7446 112.944 44.628 112.912 45.3595L116.086 46.6293C116.171 46.6632 116.244 46.7219 116.296 46.7977C116.348 46.8736 116.376 46.9631 116.376 47.0549C116.376 47.1768 116.358 49.7831 114.86 50.5491L114.938 50.862C114.966 50.9756 114.95 51.0958 114.893 51.198C114.836 51.3001 114.742 51.3766 114.63 51.4118C114.416 51.4785 109.378 53.0473 107.908 53.0473C107.822 53.0488 107.736 53.0427 107.651 53.0289C107.588 53.0188 107.529 52.996 107.476 52.962C107.423 52.928 107.377 52.8834 107.342 52.8311L106.084 50.9425L104.575 51.1932L104.264 53.5258C104.251 53.6264 104.205 53.7198 104.133 53.7914C104.061 53.8629 103.967 53.9087 103.866 53.9215L99.6062 54.4552L96.7721 54.9866C96.7438 54.9888 96.7154 54.9888 96.687 54.9866C96.5795 54.9868 96.4754 54.9493 96.3926 54.8807C96.3406 54.8375 96.2989 54.7833 96.2702 54.7221C96.2416 54.6609 96.2268 54.5941 96.227 54.5265V54.1308L94.4373 54.2596L94.0278 54.8025C93.9888 54.855 93.9391 54.8985 93.882 54.9302C93.8249 54.962 93.7617 54.9812 93.6965 54.9866L89.0659 55.3408H89.0245C88.9165 55.3429 88.8113 55.3069 88.7272 55.2392C88.6431 55.1715 88.5854 55.0764 88.5644 54.9705C88.3551 53.9261 87.9617 52.8541 87.7248 52.6701H85.6153C85.7188 53.7444 85.6797 55.12 84.8539 55.327C84.817 55.3362 84.7792 55.3409 84.7412 55.3408H79.4066C79.3352 55.3408 79.2647 55.3242 79.2009 55.2922C79.137 55.2603 79.0814 55.2139 79.0386 55.1568C78.8752 54.9382 78.1874 53.9813 78.0586 53.1578L75.5765 52.8978C75.5282 53.6891 75.335 54.9382 74.6264 55.2925C74.5838 55.3143 74.538 55.329 74.4907 55.3362C73.3145 55.5162 72.1283 55.6237 70.9389 55.6583C70.1062 55.6583 69.3149 55.5777 69.1676 54.9935C69.1354 54.8623 69.0848 54.6852 69.0273 54.4782C68.703 53.3418 68.5189 52.5712 68.5235 52.049L67.9369 51.9524C67.8585 51.9392 67.7848 51.9059 67.723 51.8557C67.7092 51.8442 66.3198 50.7585 64.0102 50.7585C62.4275 50.7585 60.7897 51.2553 59.1219 52.2376C59.3289 52.953 59.6257 54.2573 59.2484 54.9083C59.1882 55.0171 59.1049 55.1114 59.0044 55.1845C58.9038 55.2576 58.7885 55.3078 58.6664 55.3316C58.4985 55.3661 58.2478 55.4236 57.9464 55.4949C56.8652 55.7595 55.2297 56.1505 54.1945 56.1505V56.1505Z" fill="white"/>
<path d="M105.263 28.3804C105.253 28.434 105.24 28.487 105.224 28.5392C105.268 28.5292 105.312 28.5246 105.357 28.5254C105.693 28.5254 106.576 28.7554 107.004 31.0328L109.498 36.5537C109.498 36.5537 111.989 38.1639 112.346 39.045C112.346 39.045 112.702 42.2517 111.099 43.1419C111.099 43.1419 112.879 44.9224 112.346 45.6333L115.907 47.0572C115.907 47.0572 115.907 49.9073 114.296 50.2639L114.476 50.9747C114.476 50.9747 109.307 52.585 107.892 52.585C107.832 52.5902 107.771 52.5902 107.71 52.585L106.287 50.4479L104.149 50.8045L103.793 53.4752L99.5188 54.0089L96.6779 54.5403V53.6432L94.1843 53.8226L93.6506 54.5403L89.0245 54.89C89.0245 54.89 88.4908 52.2192 87.7777 52.2192H85.1139C85.1139 52.2192 85.4704 54.7128 84.7573 54.89H79.4067C79.4067 54.89 78.3393 53.466 78.5164 52.7529L75.1349 52.3964C75.1349 52.3964 75.1349 54.5334 74.4217 54.89C73.2684 55.0667 72.1053 55.1727 70.939 55.2074C70.2282 55.2074 69.6738 55.1269 69.614 54.89C69.4368 54.1768 68.7237 52.0421 69.0803 51.6855L68.0129 51.5061C68.0129 51.5061 66.5292 50.3076 64.0102 50.3076C62.5265 50.3076 60.6862 50.7217 58.5745 52.0421C58.5745 52.0421 59.4647 54.7128 58.5745 54.89C57.8314 55.0395 55.469 55.6859 54.2038 55.6859C53.9988 55.6942 53.794 55.6661 53.5988 55.6031C52.7085 55.2465 50.7509 55.2465 50.7509 55.2465L50.2172 53.2866H49.1475L48.7933 55.6031H41.8392L40.7719 54.3563V53.466L37.0361 53.2866V55.2465L29.9049 55.6031L29.0147 52.7529L25.2765 52.2192V54.1768L17.798 52.3964L17.0849 50.0822L15.1273 49.1919L14.0599 50.9724L9.78582 49.1919V48.3017C9.78582 48.3017 2.31191 46.3441 1.24453 39.9329C0.958179 38.3691 0.865466 36.776 0.968489 35.1896C1.81733 36.5813 3.37698 37.8925 6.22944 38.3319C13.1743 39.3992 16.1993 40.2895 17.6255 41.7134C17.6255 41.7134 29.7324 41.3592 36.1412 39.0427C36.339 39.0197 36.5379 39.0089 36.737 39.0105C37.8228 39.0105 40.0587 39.3118 40.5924 41.7134C40.5924 41.7134 41.1468 42.744 43.6795 42.744C44.9447 42.744 46.7068 42.4863 49.1383 41.7134C55.3493 39.7443 60.6678 34.4166 65.0753 34.4166C65.8491 34.4097 66.6127 34.5921 67.2998 34.948C70.097 36.3996 72.2893 37.2484 73.9502 37.2484C75.1464 37.2484 76.0665 36.809 76.7359 35.8406C78.0126 34.0003 77.9344 32.0403 80.5476 32.0403C81.4283 32.0692 82.3018 32.2099 83.1471 32.459C83.1471 32.459 89.6433 34.1981 95.1596 34.1981C97.3381 34.1981 99.3624 33.9266 100.773 33.1698C103.88 31.5067 104.428 29.5651 105.263 28.3827V28.3804ZM105.263 27.4626C105.116 27.4624 104.97 27.4977 104.839 27.5653C104.708 27.633 104.596 27.7311 104.511 27.8514C104.311 28.1343 104.136 28.438 103.952 28.7577C103.301 29.8872 102.571 31.1685 100.338 32.3601C99.2014 32.9674 97.46 33.2802 95.1596 33.2802C89.8342 33.2802 83.4484 31.5895 83.384 31.5711C82.4615 31.3012 81.5083 31.1505 80.5476 31.1225C78.0839 31.1225 77.3754 32.6085 76.7474 33.9174C76.5291 34.4049 76.2721 34.8741 75.9791 35.3207C75.496 36.0108 74.8703 36.3305 73.9502 36.3305C72.5883 36.3305 70.61 35.6404 67.7231 34.136C66.9047 33.7136 65.9962 33.4957 65.0753 33.5011C62.3908 33.5011 59.5245 35.2172 56.4903 37.0322C54.0611 38.486 51.5491 39.9904 48.86 40.8416C46.7896 41.4972 45.0552 41.8284 43.6795 41.8284C42.2119 41.8284 41.6092 41.4466 41.4344 41.2901C40.8846 39.2842 39.1478 38.0949 36.737 38.0949C36.4948 38.0931 36.2527 38.1077 36.0124 38.1386C35.9496 38.1464 35.8879 38.161 35.8284 38.1823C30.2523 40.1975 20.0409 40.7013 17.9683 40.7864C16.2959 39.3578 13.2295 38.486 6.36977 37.4278C4.20051 37.092 2.64776 36.181 1.75292 34.7157C1.67095 34.581 1.55576 34.4697 1.4184 34.3924C1.28105 34.315 1.12612 34.2743 0.968489 34.274C0.897209 34.2743 0.826202 34.2828 0.756854 34.2993C0.567767 34.3438 0.397609 34.447 0.270751 34.5941C0.143893 34.7412 0.0668443 34.9247 0.0506394 35.1182C-0.0592096 36.7807 0.0365971 38.4504 0.335886 40.0894C1.30204 45.884 6.88735 48.2994 8.87027 48.9826V49.1965C8.87087 49.3768 8.92438 49.5528 9.02417 49.7029C9.12395 49.853 9.26561 49.9705 9.43157 50.0408L13.7057 51.8213C13.8172 51.8679 13.9368 51.8921 14.0576 51.8926C14.2169 51.893 14.3735 51.8521 14.5122 51.7739C14.6509 51.6957 14.7669 51.5828 14.8489 51.4463L15.4931 50.3697L16.3327 50.7493L16.9239 52.6678C16.9707 52.8209 17.0566 52.9592 17.1732 53.0689C17.2898 53.1786 17.433 53.2561 17.5887 53.2935L25.0741 55.074C25.1443 55.0896 25.2161 55.0973 25.288 55.097C25.5321 55.097 25.7661 55.0001 25.9387 54.8275C26.1113 54.6549 26.2082 54.4209 26.2082 54.1768V53.2797L28.3222 53.5834L29.0377 55.8837C29.096 56.0711 29.2128 56.2349 29.3709 56.3512C29.529 56.4675 29.7201 56.5302 29.9164 56.5301H29.9624L37.0936 56.1736C37.3295 56.1618 37.5519 56.0596 37.7147 55.8883C37.8774 55.717 37.968 55.4897 37.9677 55.2534V54.2597L39.8678 54.3494V54.3632C39.8704 54.5837 39.952 54.7959 40.0979 54.9613L41.1652 56.2081C41.2506 56.3079 41.3564 56.3883 41.4754 56.4439C41.5944 56.4994 41.724 56.5288 41.8553 56.5301H48.8002C49.0221 56.5326 49.2374 56.4549 49.4065 56.3111C49.5756 56.1674 49.687 55.9674 49.7203 55.748L49.8031 55.2074L49.8813 55.495C49.9344 55.6898 50.05 55.8619 50.2105 55.9845C50.371 56.1071 50.5673 56.1736 50.7693 56.1736C51.4594 56.1736 52.7499 56.2518 53.2767 56.4634C53.5795 56.573 53.9004 56.6237 54.2222 56.6129C55.3102 56.6129 56.9826 56.2196 58.0799 55.9596C58.3743 55.8906 58.6274 55.8308 58.7838 55.7986C58.9699 55.7619 59.1458 55.6853 59.2995 55.5741C59.4532 55.4629 59.581 55.3198 59.674 55.1545C60.0697 54.4644 59.9041 53.3579 59.6878 52.4769C61.1762 51.651 62.6346 51.2347 64.0379 51.2347C66.1726 51.2347 67.4493 52.2192 67.4608 52.2284C67.584 52.3293 67.7316 52.3959 67.8887 52.4217L68.1187 52.4585C68.2311 53.1909 68.3988 53.9137 68.6202 54.6208C68.6777 54.8233 68.7283 55.0004 68.7582 55.12C69.0113 56.1345 70.3386 56.1345 70.9758 56.1345C72.1892 56.1006 73.3992 55.9907 74.5989 55.8055C74.6932 55.7912 74.7847 55.7625 74.8703 55.7204C75.6271 55.3408 75.9239 54.3402 76.0343 53.42L77.7205 53.5972C77.9442 54.2615 78.2778 54.8835 78.7073 55.4375C78.793 55.5517 78.9042 55.6445 79.032 55.7084C79.1597 55.7723 79.3006 55.8055 79.4435 55.8055H84.7849C84.8625 55.806 84.9398 55.7968 85.015 55.7779C86.1652 55.4927 86.1651 53.9813 86.1651 53.4775V53.1279H87.5592C87.8458 53.7434 88.0537 54.3926 88.178 55.0602C88.2199 55.2684 88.3327 55.4558 88.497 55.5904C88.6614 55.725 88.8673 55.7985 89.0797 55.7986H89.1487L93.7219 55.4605C93.8523 55.4503 93.9791 55.4124 94.0937 55.3493C94.2084 55.2862 94.3082 55.1994 94.3867 55.0947L94.6696 54.7197L95.7623 54.6415C95.7868 54.868 95.8944 55.0774 96.0644 55.2291C96.2344 55.3808 96.4546 55.4641 96.6825 55.4628C96.7396 55.463 96.7966 55.4576 96.8527 55.4467L99.6729 54.9176L103.919 54.3885C104.121 54.3629 104.308 54.2713 104.452 54.1282C104.596 53.9851 104.689 53.7984 104.715 53.5972L104.982 51.6004L105.861 51.4532L106.956 53.0957C107.026 53.2001 107.116 53.289 107.222 53.3571C107.328 53.4251 107.446 53.4708 107.57 53.4913C107.68 53.5098 107.792 53.5183 107.904 53.5166C109.415 53.5166 114.218 52.0306 114.761 51.8604C114.982 51.7915 115.169 51.6416 115.285 51.4407C115.401 51.2399 115.436 51.0028 115.385 50.7769C116.785 49.7601 116.831 47.3769 116.831 47.0641C116.831 46.8805 116.776 46.7011 116.673 46.549C116.571 46.3969 116.424 46.279 116.254 46.2106L113.351 45.049C113.238 44.5203 113.009 44.0236 112.679 43.5951C112.585 43.464 112.488 43.3375 112.394 43.2202C113.53 41.7433 113.3 39.2773 113.266 38.9507C113.256 38.8715 113.235 38.7941 113.204 38.7206C112.82 37.7591 111.133 36.5491 110.229 35.9464L107.888 30.7521C107.453 28.5691 106.556 27.8652 105.847 27.6696C105.777 27.6129 105.7 27.5657 105.617 27.5293C105.505 27.4841 105.386 27.4607 105.265 27.4603L105.263 27.4626Z" fill="#A3A3A3"/>
<path d="M58.6343 52.7C58.5674 52.7001 58.5014 52.6852 58.441 52.6563L54.1945 50.6895C54.1416 50.664 54.0934 50.6298 54.0519 50.5883C53.9438 50.4732 53.0029 49.4381 53.1134 48.4926C53.1348 48.3058 53.1977 48.1262 53.2976 47.967C53.3976 47.8078 53.5319 47.673 53.6908 47.5725C53.8288 47.4804 54.0496 47.3217 54.3349 47.1124C56.2534 45.7322 60.7414 42.4886 63.5709 42.4886C63.7046 42.488 63.8383 42.4957 63.9711 42.5116C66.6879 42.8314 70.893 44.3726 71.9281 45.7161C72.032 45.8358 72.1103 45.9755 72.1582 46.1266C72.2061 46.2778 72.2225 46.4371 72.2065 46.5948C72.0178 47.9175 68.956 51.1956 68.3441 51.8305C68.2646 51.9139 68.1567 51.9645 68.0417 51.9721C67.9266 51.9798 67.8129 51.944 67.723 51.8719C67.7092 51.8604 66.3198 50.7746 64.0102 50.7746C62.4184 50.7746 60.7667 51.2784 59.092 52.2721C59.0831 52.3929 59.0269 52.5054 58.9356 52.585C58.8523 52.6584 58.7453 52.6993 58.6343 52.7V52.7Z" fill="#A3A3A3"/>
<path d="M63.5709 42.9418C63.6861 42.942 63.8013 42.9481 63.9159 42.9602C66.9432 43.3168 71.9281 45.2744 71.751 46.5212C71.5739 47.768 68.0129 51.5061 68.0129 51.5061C68.0129 51.5061 66.5292 50.3076 64.0102 50.3076C62.5265 50.3076 60.6862 50.7217 58.5745 52.0421C58.5745 52.0421 58.5998 52.1111 58.6343 52.2307L54.3878 50.2639C54.3878 50.2639 52.8787 48.6536 53.9461 47.9451C54.9744 47.255 60.4631 42.9418 63.5709 42.9418V42.9418ZM63.5709 42.0217C60.9461 42.0217 57.2931 44.4025 54.0657 46.7328C53.7851 46.9353 53.5619 47.0963 53.4354 47.1814C53.2211 47.3189 53.04 47.5023 52.9051 47.7183C52.7703 47.9343 52.6851 48.1776 52.6556 48.4305C52.5268 49.5623 53.5159 50.6803 53.7161 50.8942C53.7974 50.9798 53.8942 51.0492 54.0013 51.0989L58.2478 53.0658C58.3692 53.1209 58.5009 53.1499 58.6343 53.1509C58.8197 53.151 59.0009 53.095 59.154 52.9903C59.3072 52.8857 59.4251 52.7371 59.4923 52.5643C61.0359 51.6763 62.5541 51.2278 64.0102 51.2278C66.1404 51.2278 67.4263 52.2169 67.4378 52.2261C67.6177 52.3695 67.8448 52.4403 68.0743 52.4245C68.3038 52.4088 68.5191 52.3076 68.6777 52.141C69.8095 50.954 72.4641 48.0394 72.662 46.6523C72.6871 46.4338 72.6671 46.2126 72.6034 46.0021C72.5398 45.7916 72.4336 45.5964 72.2916 45.4285C71.0678 43.8367 66.5038 42.3391 64.024 42.047C63.8713 42.0299 63.7177 42.0215 63.564 42.0217H63.5709ZM35.7041 43.7538C34.8852 43.7538 33.5004 43.1373 33.13 42.767C33.0865 42.7251 33.0568 42.671 33.0449 42.6118C33.033 42.5526 33.0394 42.4912 33.0633 42.4357C33.314 41.8307 37.0476 40.9497 37.388 40.9497C37.4487 40.9474 37.5087 40.963 37.5606 40.9945C37.6126 41.0259 37.6541 41.072 37.6802 41.1268C37.7377 41.2487 37.8872 41.5754 36.1389 43.6434C36.1077 43.6798 36.0659 43.7056 36.0193 43.717C35.9163 43.7432 35.8103 43.7556 35.7041 43.7538V43.7538Z" fill="#A3A3A3"/>
<path d="M37.388 41.1797C37.9217 41.1797 35.9641 43.4939 35.9641 43.4939C35.879 43.5149 35.7917 43.525 35.7041 43.5238C34.9197 43.5238 33.6108 42.9234 33.2933 42.6036C32.9368 42.2494 36.8543 41.1797 37.388 41.1797V41.1797ZM37.388 40.7196C37.0015 40.7196 35.7662 41.0486 35.0761 41.2556C33.0518 41.8652 32.9299 42.155 32.8517 42.3483C32.8102 42.4456 32.7989 42.5532 32.8194 42.657C32.84 42.7608 32.8913 42.856 32.9667 42.9303C33.3738 43.3351 34.7909 43.9838 35.7041 43.9838C35.829 43.9856 35.9535 43.9709 36.0745 43.9401C36.1643 43.9155 36.2445 43.8641 36.3045 43.7929C38.1448 41.6122 37.9861 41.2625 37.8803 41.0325C37.8353 40.9381 37.7641 40.8586 37.6752 40.8035C37.5862 40.7485 37.4834 40.7201 37.3788 40.7219L37.388 40.7196ZM87.0761 39.4544C86.6845 39.4557 86.2955 39.3904 85.9259 39.2612C83.1654 38.272 81.845 37.5014 81.6817 36.7676C81.6518 36.6355 81.6573 36.4978 81.6977 36.3686C81.7381 36.2393 81.8119 36.123 81.9117 36.0315C81.9438 36.002 81.9824 35.9807 82.0245 35.9693C83.3444 35.702 84.6873 35.5648 86.034 35.5599C88.4931 35.5599 90.3265 36.0752 91.4882 37.0896C91.5124 37.1109 91.5319 37.1371 91.5454 37.1664C91.5589 37.1957 91.566 37.2276 91.5664 37.2599C91.5666 37.2918 91.5602 37.3234 91.5475 37.3527C91.5348 37.382 91.5162 37.4084 91.4928 37.4301C91.4054 37.5175 89.3097 39.4544 87.0761 39.4544V39.4544Z" fill="#A3A3A3"/>
<path d="M86.034 35.7899C87.9019 35.7899 90.0068 36.1005 91.3364 37.2622C91.3364 37.2622 89.243 39.2244 87.0761 39.2244C86.7079 39.2273 86.342 39.1658 85.9949 39.0427C83.5013 38.1524 81.1871 37.0851 82.0843 36.1948C83.3869 35.9317 84.712 35.7961 86.0409 35.7899H86.034ZM86.0409 35.3299C84.6786 35.334 83.3201 35.4735 81.9854 35.7462C81.8983 35.7645 81.8184 35.8077 81.7553 35.8705C81.6262 35.9876 81.53 36.1365 81.4764 36.3024C81.4227 36.4683 81.4134 36.6453 81.4494 36.8159C81.5805 37.4048 82.2062 38.1777 85.8431 39.4774C86.2399 39.6168 86.6578 39.6869 87.0784 39.6845C89.4018 39.6845 91.5618 37.6832 91.6538 37.598C91.7005 37.5541 91.7375 37.501 91.7625 37.442C91.7874 37.3829 91.7998 37.3194 91.7988 37.2553C91.7977 37.1911 91.7832 37.1279 91.7563 37.0697C91.7294 37.0114 91.6905 36.9595 91.6423 36.9171C90.4369 35.8636 88.5529 35.3299 86.0363 35.3299H86.0409Z" fill="#A3A3A3"/>
<path d="M89.0889 31.3939C86.2204 31.3939 79.4043 29.7238 78.6429 29.5352H78.4014C72.218 29.5352 70.7733 27.7202 70.4375 26.9404C70.3111 26.6649 70.2494 26.3642 70.257 26.0612C70.2645 25.7582 70.3412 25.4609 70.4812 25.1921C71.3346 23.5565 74.355 22.8549 74.8312 22.7537C89.2522 17.6929 97.897 11.8108 100.462 9.57485C100.181 9.71748 99.8777 9.8854 99.5855 10.0602C99.4876 10.1194 99.371 10.1399 99.2587 10.1178C99.1465 10.0957 99.0464 10.0325 98.9782 9.94061C98.9103 9.84902 98.8788 9.73548 98.8899 9.622C98.9009 9.50852 98.9537 9.40318 99.038 9.32641C99.3072 9.08027 100.701 7.85877 101.683 7.85877C101.903 7.85322 102.119 7.92123 102.295 8.05201C102.324 8.07348 102.35 8.09818 102.374 8.12562C103.977 10.0487 107.658 14.6449 107.457 15.7951C107.446 15.8678 107.417 15.9365 107.372 15.9952C107.329 16.055 106.245 17.4789 103.245 19.7816C103.225 19.8026 103.202 19.8218 103.179 19.8391C101.863 20.7823 100.855 21.4494 100.846 21.4494C99.0909 22.5697 94.4051 25.804 93.715 27.3061L93.6667 27.4143C92.7971 29.3328 92.1668 30.7176 90.0344 31.2996C89.7255 31.3723 89.4084 31.4048 89.0912 31.3962L89.0889 31.3939Z" fill="white"/>
<path d="M101.677 8.31884C101.797 8.31483 101.915 8.35039 102.012 8.42005C102.012 8.42005 107.177 14.6518 106.997 15.7191C106.997 15.7191 105.93 17.1431 102.903 19.4595C101.578 20.4096 100.586 21.056 100.586 21.056C100.586 21.056 94.175 25.1507 93.2848 27.1106C92.3945 29.0705 91.8608 30.315 89.9032 30.8487C89.6332 30.91 89.3565 30.937 89.0797 30.9292C86.1283 30.9292 78.6866 29.0682 78.6866 29.0682H78.3921C77.0832 29.0682 71.7855 28.9325 70.8515 26.7517C69.7841 24.2581 74.9462 23.1908 74.9462 23.1908C92.2174 17.1362 101.297 9.84858 101.654 8.94684C101.732 8.75361 101.665 8.67769 101.516 8.67769C100.975 8.67769 99.3394 9.65995 99.3394 9.65995C99.3394 9.65995 100.821 8.31193 101.674 8.31193L101.677 8.31884ZM101.674 7.39178C100.552 7.39178 99.13 8.60638 98.7206 8.97904C98.5519 9.13258 98.4464 9.34325 98.4243 9.57021C98.4022 9.79718 98.4651 10.0243 98.6009 10.2074C98.6348 10.2528 98.6725 10.2951 98.7137 10.334C97.128 11.4958 95.4842 12.5761 93.7886 13.5706C89.9768 15.8365 83.5726 19.1881 74.6954 22.312C74.1042 22.4408 70.9941 23.1954 70.0625 24.9804C69.8895 25.3091 69.7941 25.673 69.7837 26.0443C69.7734 26.4156 69.8483 26.7843 70.0027 27.1221C70.5295 28.3482 71.9764 29.1924 74.3067 29.6525C75.6546 29.8911 77.021 30.0104 78.3899 30.0091H78.5785C79.5814 30.2575 86.218 31.8678 89.0774 31.8678C89.4358 31.8769 89.7939 31.839 90.1425 31.755C92.4819 31.1178 93.1836 29.572 94.0715 27.6144L94.1221 27.5063C94.6558 26.3285 98.5112 23.4875 101.078 21.8473C101.127 21.8151 102.111 21.1733 103.436 20.2233C103.473 20.1975 103.507 20.169 103.54 20.1382C106.569 17.8102 107.681 16.3448 107.729 16.2827C107.818 16.1651 107.877 16.0278 107.901 15.8825C107.993 15.3258 107.865 14.5436 105.304 11.1276C104.048 9.42762 102.742 7.84266 102.728 7.84266C102.682 7.78653 102.63 7.7363 102.571 7.69313C102.314 7.49901 101.999 7.39549 101.677 7.39869L101.674 7.39178Z" fill="#A3A3A3"/>
<path d="M97.2115 19.2065C97.1337 19.2063 97.0572 19.1863 96.9893 19.1485C96.9213 19.1107 96.864 19.0563 96.8227 18.9903L95.9256 17.5664C95.8934 17.5152 95.8716 17.4581 95.8614 17.3985C95.8512 17.3389 95.8529 17.2778 95.8664 17.2189C95.8799 17.1599 95.9048 17.1042 95.9398 17.0548C95.9749 17.0055 96.0193 16.9636 96.0705 16.9315C96.1326 16.8947 102.263 13.0208 103.627 11.4957C103.67 11.4473 103.723 11.4086 103.782 11.382C103.841 11.3555 103.905 11.3417 103.97 11.3416H103.991C104.058 11.3444 104.125 11.3622 104.185 11.3936C104.245 11.425 104.297 11.4693 104.338 11.5233L105.408 12.9495C105.477 13.0429 105.509 13.1591 105.496 13.2748C105.483 13.3905 105.427 13.497 105.339 13.5729C104.255 14.5138 98.7297 19.2065 97.2115 19.2065Z" fill="#A3A3A3"/>
<path d="M103.977 11.8016L105.047 13.2279C105.047 13.2279 98.6354 18.7488 97.2115 18.7488L96.3213 17.3248C96.3213 17.3248 102.553 13.4142 103.977 11.8039V11.8016ZM103.977 10.8838C103.846 10.8837 103.717 10.9113 103.598 10.9648C103.479 11.0184 103.373 11.0966 103.287 11.1943C102.192 12.4273 97.5359 15.4753 95.829 16.545C95.6226 16.6748 95.4762 16.8812 95.4219 17.1188C95.3675 17.3564 95.4097 17.6059 95.5391 17.8125L96.4294 19.2364C96.5121 19.3687 96.627 19.4778 96.7634 19.5535C96.8998 19.6291 97.0532 19.6688 97.2092 19.6689C97.8349 19.6689 98.877 19.3101 102.224 16.7152C104.002 15.335 105.629 13.941 105.645 13.9272C105.821 13.775 105.934 13.5613 105.959 13.3294C105.984 13.0975 105.92 12.8647 105.78 12.6781L104.711 11.2518C104.63 11.144 104.526 11.0553 104.406 10.9921C104.287 10.9289 104.155 10.8927 104.021 10.8861L103.977 10.8838ZM86.3768 26.6759C85.2053 26.6733 84.0508 26.3951 83.0067 25.8638C82.404 25.5625 82.1096 25.1737 82.1349 24.7412C82.1878 23.7636 83.798 23.1011 86.4389 22.1257C87.0025 21.9164 87.5338 21.7209 87.9847 21.5345C88.6633 21.2562 89.1349 21.0215 89.4869 20.8444C89.9285 20.6282 90.177 20.5086 90.4185 20.5086C90.966 20.5086 91.0856 20.9939 91.2144 21.5069L91.2259 21.5506C91.4215 22.3374 90.7659 23.7038 89.2683 25.6085C88.8869 26.0943 88.3428 26.4259 87.7363 26.5424C87.2888 26.6271 86.8344 26.6695 86.3791 26.669L86.3768 26.6759Z" fill="#A3A3A3"/>
<path d="M90.4185 20.9755C90.6118 20.9755 90.6486 21.1802 90.7797 21.6656C90.9936 22.5191 89.6433 24.387 88.9072 25.3255C88.5937 25.7241 88.1469 25.9961 87.6489 26.0915C87.2303 26.1712 86.8052 26.2112 86.3791 26.2112C85.2787 26.2082 84.1944 25.9465 83.2138 25.4474C80.8858 24.2834 85.6867 22.9745 88.1596 21.9555C89.595 21.3643 90.1494 20.9709 90.4185 20.9709V20.9755ZM90.4185 20.0508C90.0643 20.0508 89.7698 20.1934 89.2822 20.4349C88.9417 20.6028 88.4747 20.8329 87.8099 21.1043C87.3659 21.2884 86.8392 21.4839 86.2802 21.6886C83.4714 22.7261 81.7461 23.4254 81.6794 24.7113C81.6564 25.1553 81.8312 25.7833 82.8066 26.271C83.9149 26.8345 85.1403 27.1292 86.3837 27.1313C86.8677 27.1323 87.3507 27.0869 87.826 26.9956C88.5422 26.8593 89.1847 26.4678 89.6341 25.8937C91.7804 23.1632 91.8287 22.0452 91.6768 21.4425L91.6653 21.3965C91.5388 20.8927 91.3295 20.0508 90.4231 20.0508H90.4185ZM75.312 27.9318C74.9025 27.9318 74.5022 27.8104 74.1618 27.5829C73.8213 27.3554 73.5559 27.0321 73.3992 26.6538C73.2425 26.2755 73.2015 25.8592 73.2814 25.4576C73.3613 25.056 73.5585 24.6871 73.848 24.3975C74.1376 24.108 74.5065 23.9108 74.9081 23.8309C75.3097 23.7511 75.726 23.7921 76.1043 23.9488C76.4826 24.1055 76.8059 24.3708 77.0334 24.7113C77.2609 25.0517 77.3823 25.452 77.3823 25.8615C77.3823 26.4106 77.1642 26.9372 76.7759 27.3254C76.3877 27.7137 75.8611 27.9318 75.312 27.9318Z" fill="#A3A3A3"/>
<path d="M75.312 24.265C75.6305 24.265 75.9418 24.3595 76.2066 24.5364C76.4714 24.7134 76.6778 24.9649 76.7997 25.2591C76.9215 25.5533 76.9534 25.8771 76.8913 26.1895C76.8292 26.5018 76.6758 26.7887 76.4506 27.0139C76.2254 27.2391 75.9385 27.3925 75.6261 27.4546C75.3138 27.5168 74.99 27.4849 74.6958 27.363C74.4015 27.2411 74.15 27.0347 73.9731 26.7699C73.7961 26.5051 73.7017 26.1938 73.7017 25.8753C73.7017 25.6638 73.7434 25.4545 73.8243 25.2591C73.9052 25.0637 74.0238 24.8862 74.1733 24.7367C74.3229 24.5872 74.5004 24.4685 74.6958 24.3876C74.8911 24.3067 75.1005 24.265 75.312 24.265ZM75.312 23.3449C74.8115 23.3449 74.3223 23.4933 73.9062 23.7714C73.49 24.0494 73.1657 24.4446 72.9742 24.907C72.7827 25.3693 72.7325 25.8781 72.8302 26.369C72.9278 26.8598 73.1688 27.3107 73.5227 27.6646C73.8766 28.0185 74.3275 28.2595 74.8183 28.3571C75.3092 28.4547 75.8179 28.4046 76.2803 28.2131C76.7427 28.0216 77.1379 27.6973 77.4159 27.2811C77.694 26.865 77.8424 26.3758 77.8424 25.8753C77.8424 25.2042 77.5758 24.5606 77.1012 24.086C76.6267 23.6115 75.9831 23.3449 75.312 23.3449V23.3449ZM89.7146 30.3679C89.5926 30.3768 89.4721 30.3368 89.3795 30.2568C89.287 30.1768 89.23 30.0632 89.2212 29.9412C89.2123 29.8192 89.2523 29.6987 89.3324 29.6061C89.4124 29.5136 89.5259 29.4566 89.6479 29.4478C90.1908 29.3673 90.3817 29.2178 90.4484 29.1372C90.7446 28.7423 91.0166 28.3298 91.2628 27.9019C91.3307 27.8125 91.4291 27.7509 91.5393 27.729C91.6494 27.707 91.7639 27.7261 91.8609 27.7827C91.958 27.8393 92.031 27.9295 92.0662 28.0362C92.1013 28.1429 92.0962 28.2588 92.0518 28.362C91.7873 28.8278 91.4914 29.2751 91.1661 29.7008C90.897 30.0367 90.4438 30.2483 89.7859 30.3472C89.763 30.3567 89.7391 30.3636 89.7146 30.3679V30.3679ZM86.9542 30.2966C86.9351 30.2988 86.9158 30.2988 86.8967 30.2966C86.0869 30.1954 85.1599 30.0367 84.1362 29.8251C84.0166 29.8 83.9119 29.7285 83.845 29.6263C83.7781 29.5241 83.7546 29.3994 83.7796 29.2799C83.8047 29.1603 83.8762 29.0555 83.9784 28.9887C84.0806 28.9218 84.2053 28.8983 84.3248 28.9233C85.3232 29.1326 86.2272 29.2868 87.0117 29.3834C87.1337 29.391 87.2477 29.4468 87.3286 29.5385C87.4095 29.6301 87.4506 29.7502 87.443 29.8722C87.4354 29.9942 87.3796 30.1082 87.2879 30.1891C87.1962 30.27 87.0762 30.3112 86.9542 30.3035V30.2966ZM81.5391 29.2017C81.5003 29.2015 81.4617 29.1968 81.4241 29.1879C79.8805 28.7922 78.7487 28.4471 78.7372 28.4448C78.6204 28.4094 78.5224 28.3291 78.4648 28.2215C78.4072 28.1138 78.3947 27.9877 78.4301 27.8709C78.4655 27.7541 78.5459 27.6561 78.6535 27.5985C78.7611 27.5409 78.8872 27.5284 79.0041 27.5638C79.0156 27.5638 80.1289 27.9065 81.6541 28.2976C81.7612 28.3267 81.8542 28.3935 81.916 28.4858C81.9777 28.5781 82.004 28.6896 81.99 28.7997C81.9759 28.9098 81.9226 29.0111 81.8397 29.085C81.7569 29.1589 81.6501 29.2003 81.5391 29.2017V29.2017ZM93.0594 26.2273C92.973 26.2269 92.8885 26.2021 92.8155 26.156C92.7643 26.1238 92.7199 26.0819 92.6848 26.0326C92.6498 25.9833 92.6249 25.9275 92.6114 25.8686C92.5979 25.8096 92.5962 25.7485 92.6064 25.6889C92.6165 25.6293 92.6384 25.5722 92.6706 25.5211C93.1632 24.7104 93.7258 23.9445 94.3522 23.2322C94.4342 23.1407 94.5493 23.0855 94.672 23.0788C94.7947 23.0721 94.9151 23.1145 95.0066 23.1965C95.0981 23.2786 95.1533 23.3936 95.16 23.5164C95.1667 23.6391 95.1243 23.7595 95.0423 23.851C94.4515 24.523 93.9211 25.2458 93.4573 26.011C93.4155 26.078 93.3571 26.1331 93.2878 26.1709C93.2185 26.2088 93.1406 26.2282 93.0617 26.2273H93.0594ZM96.8964 22.381C96.7889 22.3805 96.685 22.3425 96.6027 22.2734C96.5204 22.2043 96.4649 22.1086 96.4458 22.0029C96.4266 21.8971 96.4451 21.788 96.498 21.6945C96.5509 21.601 96.6349 21.5289 96.7354 21.4908C96.9159 21.4224 97.1012 21.367 97.2897 21.3252C97.3498 21.3089 97.4124 21.3049 97.474 21.3136C97.5356 21.3222 97.5948 21.3432 97.648 21.3753C97.7013 21.4075 97.7474 21.4501 97.7837 21.5005C97.82 21.551 97.8457 21.6083 97.8593 21.669C97.8728 21.7297 97.8739 21.7925 97.8625 21.8536C97.8511 21.9148 97.8274 21.9729 97.7929 22.0246C97.7583 22.0764 97.7137 22.1205 97.6616 22.1545C97.6095 22.1885 97.5511 22.2116 97.4899 22.2223C97.3436 22.2551 97.1999 22.2981 97.0597 22.3511C97.0075 22.3709 96.9522 22.3811 96.8964 22.381V22.381Z" fill="#A3A3A3"/>
<path d="M51.9885 33.9842C51.881 33.9837 51.7771 33.9456 51.6948 33.8765C51.6125 33.8074 51.557 33.7117 51.5379 33.606C51.5187 33.5002 51.5372 33.3911 51.5901 33.2976C51.643 33.2041 51.727 33.132 51.8274 33.0939C51.8274 33.0939 52.8488 32.7166 54.4016 32.0978C54.4583 32.0716 54.5197 32.0572 54.5822 32.0556C54.6447 32.0539 54.7068 32.065 54.7649 32.0881C54.8229 32.1112 54.8756 32.1459 54.9198 32.1901C54.964 32.2343 54.9987 32.287 55.0219 32.345C55.0451 32.403 55.0561 32.4652 55.0545 32.5277C55.0528 32.5901 55.0385 32.6516 55.0123 32.7083C54.9861 32.765 54.9486 32.8158 54.9022 32.8576C54.8557 32.8994 54.8012 32.9313 54.742 32.9513C53.1755 33.5747 52.1564 33.9519 52.1472 33.9566C52.0962 33.9746 52.0426 33.9839 51.9885 33.9842V33.9842ZM57.1321 31.9391C57.0261 31.9389 56.9235 31.9021 56.8415 31.835C56.7595 31.7679 56.7032 31.6745 56.6821 31.5706C56.661 31.4668 56.6764 31.3588 56.7257 31.265C56.775 31.1712 56.8552 31.0973 56.9527 31.0558C57.8222 30.6923 58.6734 30.3266 59.4831 29.9677C59.5947 29.9183 59.7214 29.9152 59.8353 29.9592C59.9492 30.0033 60.041 30.0907 60.0904 30.2023C60.1398 30.314 60.1428 30.4407 60.0988 30.5546C60.0548 30.6685 59.9674 30.7602 59.8557 30.8096C59.0094 31.1823 58.1598 31.5473 57.3069 31.9046C57.2513 31.9268 57.192 31.9385 57.1321 31.9391V31.9391ZM62.1929 29.7078C62.0883 29.7077 61.9869 29.672 61.9053 29.6066C61.8237 29.5412 61.7668 29.4499 61.7441 29.3479C61.7213 29.2458 61.734 29.139 61.78 29.0451C61.8261 28.9512 61.9027 28.8758 61.9974 28.8313C62.8646 28.4242 63.6997 28.0216 64.4749 27.6305C64.5841 27.5759 64.7105 27.5669 64.8264 27.6055C64.9422 27.6442 65.0379 27.7272 65.0925 27.8364C65.1471 27.9456 65.1561 28.072 65.1175 28.1879C65.0789 28.3037 64.9959 28.3995 64.8867 28.4541C64.1045 28.8474 63.2626 29.2546 62.3862 29.6641C62.3251 29.6933 62.2583 29.7082 62.1906 29.7078H62.1929ZM67.1272 27.2142C67.0246 27.2158 66.9244 27.1831 66.8425 27.1212C66.7606 27.0593 66.7017 26.9719 66.6753 26.8727C66.6488 26.7735 66.6563 26.6683 66.6965 26.5739C66.7367 26.4795 66.8074 26.4012 66.8972 26.3515C67.7644 25.873 68.5558 25.4038 69.2482 24.9575C69.351 24.8916 69.4757 24.8692 69.595 24.8953C69.7143 24.9214 69.8183 24.9939 69.8842 25.0967C69.9501 25.1995 69.9725 25.3242 69.9464 25.4435C69.9203 25.5628 69.8478 25.6668 69.745 25.7327C69.0342 26.1928 68.2268 26.6667 67.3435 27.1566C67.2765 27.1937 67.2014 27.2135 67.1249 27.2142H67.1272Z" fill="white"/>
<path d="M37.5283 34.9019C36.7714 34.8421 32.9505 34.5201 32.196 34.1428C32.0931 34.0953 32.0078 34.0166 31.9521 33.918C31.8964 33.8193 31.8731 33.7057 31.8854 33.593C31.9176 33.3009 31.9545 32.9696 34.9012 31.6975C36.2815 31.1017 37.7905 30.5312 38.1655 30.4369C38.2544 30.4159 38.3455 30.4058 38.4369 30.407C39.4836 30.407 41.8438 31.6584 43.3919 33.0317C43.8336 33.4274 43.8267 33.7771 43.7393 34.0025C43.4954 34.6466 42.4073 34.8651 39.4307 34.8651H38.3633C37.963 34.8651 37.7928 34.8651 37.7261 34.8789C37.6744 34.8974 37.6199 34.9067 37.5651 34.9065L37.5283 34.9019Z" fill="#A3A3A3"/>
<path d="M38.437 30.8671C39.3065 30.8671 41.5862 32.0426 43.086 33.3768C44.1534 34.3269 41.4228 34.4051 39.433 34.4051H38.361C38.095 34.3859 37.8277 34.3998 37.5651 34.4465C37.5651 34.4465 33.1139 34.0899 32.4031 33.7357C31.6923 33.3814 37.5651 31.0649 38.2782 30.8855C38.3303 30.8737 38.3836 30.8683 38.437 30.8694V30.8671ZM38.437 29.9493C38.3083 29.948 38.1801 29.9626 38.0551 29.993C37.6111 30.1034 36.0193 30.7176 34.7172 31.2789C32.548 32.2128 31.5174 32.7419 31.4277 33.5447C31.4054 33.751 31.4477 33.9592 31.5486 34.1404C31.6495 34.3217 31.8042 34.4672 31.9913 34.5569C32.7504 34.9365 35.7639 35.2263 37.4915 35.3643H37.5651C37.6491 35.3645 37.7328 35.3529 37.8136 35.3298H39.433C42.7249 35.3298 43.8336 35.0584 44.1695 34.1797C44.2615 33.9496 44.3995 33.3239 43.7094 32.7028C42.2487 31.4054 39.7298 29.9608 38.4485 29.9608L38.437 29.9493ZM11.0096 38.9575C10.9291 38.9595 10.8496 38.9396 10.7796 38.9C10.7265 38.8709 10.6797 38.8317 10.6418 38.7844C10.6039 38.7372 10.5757 38.683 10.5588 38.6249C10.542 38.5668 10.5367 38.5059 10.5434 38.4457C10.5501 38.3856 10.5686 38.3273 10.5978 38.2743C11.0783 37.4427 11.655 36.6706 12.3162 35.9739C12.3558 35.9249 12.405 35.8846 12.4609 35.8554C12.5167 35.8262 12.5779 35.8088 12.6408 35.8043C12.7036 35.7997 12.7667 35.8081 12.8262 35.829C12.8856 35.8498 12.9402 35.8826 12.9864 35.9254C13.0327 35.9682 13.0696 36.02 13.095 36.0776C13.1204 36.1353 13.1337 36.1975 13.1341 36.2605C13.1344 36.3235 13.1219 36.3859 13.0971 36.4439C13.0724 36.5018 13.036 36.554 12.9902 36.5973C12.385 37.241 11.8556 37.9518 11.4122 38.716C11.3729 38.7887 11.3148 38.8495 11.244 38.892C11.1732 38.9345 11.0922 38.9571 11.0096 38.9575V38.9575ZM51.9885 38.8379C51.8714 38.8381 51.7587 38.7937 51.6733 38.7137L49.6444 36.8274C49.5553 36.7438 49.5031 36.6283 49.4992 36.5062C49.4953 36.3841 49.5401 36.2654 49.6237 36.1764C49.7073 36.0873 49.8228 36.0351 49.9449 36.0312C50.067 36.0273 50.1856 36.0721 50.2747 36.1557L52.2921 38.0489C52.3595 38.112 52.4064 38.1939 52.4266 38.284C52.4468 38.3741 52.4394 38.4682 52.4054 38.5541C52.3714 38.64 52.3124 38.7136 52.236 38.7655C52.1596 38.8173 52.0693 38.845 51.977 38.8448L51.9885 38.8379ZM23.1809 35.2838C22.401 35.2838 21.5177 35.2631 20.402 35.2217C20.28 35.2171 20.1648 35.1643 20.0818 35.0748C19.9987 34.9853 19.9546 34.8664 19.9592 34.7444C19.9638 34.6224 20.0166 34.5072 20.1062 34.4241C20.1957 34.3411 20.3145 34.297 20.4365 34.3016C21.5407 34.343 22.4125 34.3637 23.1809 34.3637C23.2413 34.3637 23.3012 34.3755 23.357 34.3987C23.4128 34.4218 23.4636 34.4556 23.5063 34.4984C23.549 34.5411 23.583 34.5918 23.6061 34.6476C23.6292 34.7035 23.6411 34.7633 23.6411 34.8238C23.6411 34.8842 23.6292 34.944 23.6061 34.9999C23.583 35.0557 23.549 35.1064 23.5063 35.1491C23.4636 35.1919 23.4128 35.2257 23.357 35.2489C23.3012 35.272 23.2413 35.2839 23.1809 35.2838V35.2838ZM14.9156 35.1987C14.8054 35.1991 14.6988 35.1599 14.615 35.0883C14.5313 35.0167 14.476 34.9173 14.4593 34.8084C14.4426 34.6995 14.4655 34.5882 14.5239 34.4948C14.5824 34.4013 14.6724 34.332 14.7776 34.2993C15.1151 34.1903 15.4673 34.1337 15.822 34.1313C16.358 34.1313 17.0619 34.1589 17.6807 34.1843C17.8027 34.1894 17.9177 34.2429 18.0003 34.3328C18.0829 34.4228 18.1264 34.5419 18.1212 34.6639C18.116 34.7859 18.0626 34.9009 17.9726 34.9835C17.8827 35.0661 17.7636 35.1096 17.6416 35.1044C17.032 35.0791 16.3396 35.0515 15.822 35.0515C15.5618 35.0542 15.3036 35.096 15.056 35.1757C15.0108 35.1912 14.9634 35.1989 14.9156 35.1987V35.1987ZM25.9367 35.1458C25.8147 35.1543 25.6943 35.1141 25.602 35.0338C25.5096 34.9536 25.453 34.84 25.4444 34.7179C25.4359 34.5959 25.4762 34.4755 25.5564 34.3832C25.6367 34.2909 25.7503 34.2342 25.8723 34.2257C26.2182 34.2022 26.5564 34.1124 26.8684 33.9611C27.1467 33.7863 27.6344 33.501 28.2049 33.1698C28.3107 33.1088 28.4365 33.0923 28.5545 33.124C28.6725 33.1557 28.773 33.233 28.834 33.3389C28.8951 33.4447 28.9115 33.5705 28.8798 33.6885C28.8481 33.8064 28.7708 33.907 28.665 33.968C28.1014 34.2901 27.6252 34.573 27.3561 34.7409C26.9348 34.9626 26.4732 35.0972 25.9988 35.1366C25.9785 35.142 25.9577 35.1451 25.9367 35.1458V35.1458ZM47.9444 35.0469C47.8274 35.0471 47.7147 35.0027 47.6293 34.9227C46.9391 34.2602 46.4791 33.8392 46.3203 33.6713C46.0987 33.4813 45.8609 33.3112 45.6095 33.1629C45.5139 33.094 45.4484 32.9911 45.4264 32.8754C45.4045 32.7596 45.4277 32.6399 45.4914 32.5408C45.5551 32.4417 45.6544 32.3708 45.7688 32.3428C45.8833 32.3147 46.0041 32.3316 46.1064 32.39C46.4157 32.5696 46.7056 32.7808 46.9713 33.0203C47.1347 33.1836 47.5671 33.5977 48.2619 34.2533C48.3286 34.3167 48.3748 34.3986 48.3944 34.4885C48.4141 34.5785 48.4063 34.6722 48.3721 34.7577C48.338 34.8431 48.2789 34.9164 48.2027 34.968C48.1264 35.0195 48.0365 35.047 47.9444 35.0469V35.0469ZM30.8503 32.6867C30.7469 32.6894 30.6456 32.6571 30.5628 32.5951C30.48 32.5331 30.4205 32.445 30.3939 32.345C30.3673 32.2451 30.3752 32.1391 30.4163 32.0441C30.4573 31.9492 30.5292 31.8708 30.6203 31.8218C31.4944 31.3479 32.3203 30.9016 33.0771 30.5267C33.131 30.497 33.1904 30.4785 33.2517 30.4722C33.3129 30.466 33.3748 30.4721 33.4336 30.4901C33.4925 30.5082 33.5471 30.5379 33.5943 30.5775C33.6414 30.6171 33.6802 30.6657 33.7082 30.7205C33.7362 30.7753 33.7529 30.8352 33.7574 30.8966C33.7619 30.958 33.754 31.0197 33.7341 31.078C33.7143 31.1363 33.683 31.19 33.6421 31.2359C33.6011 31.2819 33.5514 31.3192 33.4958 31.3456C32.7458 31.7275 31.9269 32.1599 31.0597 32.6315C30.9953 32.6663 30.9235 32.6852 30.8503 32.6867ZM43.4771 31.8448C43.3966 31.8468 43.3171 31.8269 43.247 31.7873C42.3982 31.3272 41.554 30.897 40.8063 30.5474C40.7515 30.5217 40.7023 30.4855 40.6614 30.4408C40.6206 30.396 40.589 30.3437 40.5684 30.2868C40.5478 30.2299 40.5386 30.1695 40.5413 30.109C40.544 30.0485 40.5587 29.9891 40.5844 29.9343C40.61 29.8795 40.6463 29.8302 40.691 29.7894C40.7357 29.7486 40.788 29.717 40.8449 29.6963C40.9018 29.6757 40.9623 29.6665 41.0227 29.6693C41.0832 29.672 41.1426 29.6866 41.1974 29.7123C41.9611 30.0735 42.8215 30.5106 43.6864 30.9798C43.7775 31.0289 43.8493 31.1072 43.8904 31.2022C43.9315 31.2971 43.9394 31.4031 43.9128 31.5031C43.8862 31.6031 43.8267 31.6912 43.7439 31.7532C43.6611 31.8151 43.5598 31.8474 43.4564 31.8448H43.4771ZM35.7984 30.2C35.693 30.1996 35.5909 30.1631 35.5092 30.0965C35.4275 30.0298 35.3712 29.9372 35.3497 29.834C35.3281 29.7308 35.3426 29.6234 35.3908 29.5296C35.439 29.4358 35.5179 29.3615 35.6144 29.319C37.1119 28.6657 37.6525 28.592 37.9309 28.592C38.139 28.5967 38.3458 28.6253 38.5474 28.6772C38.6061 28.6914 38.6615 28.717 38.7104 28.7526C38.7592 28.7882 38.8006 28.8331 38.8321 28.8847C38.8636 28.9362 38.8846 28.9935 38.894 29.0532C38.9034 29.113 38.9009 29.1739 38.8867 29.2327C38.8725 29.2915 38.8468 29.3468 38.8112 29.3957C38.7756 29.4445 38.7308 29.4859 38.6792 29.5174C38.6276 29.5489 38.5703 29.5699 38.5106 29.5793C38.4509 29.5887 38.3899 29.5862 38.3311 29.572C38.2005 29.5366 38.0662 29.5166 37.9309 29.5122C37.7951 29.5122 37.3305 29.5743 35.9825 30.1632C35.9215 30.1893 35.8555 30.2018 35.7892 30.2H35.7984Z" fill="#A3A3A3"/>
<path d="M30.266 27.9319C30.203 27.9317 30.1406 27.9185 30.0828 27.8932C30.025 27.8678 29.9731 27.8309 29.9302 27.7847C29.6562 27.4694 29.4573 27.0961 29.3486 26.6929C29.2398 26.2896 29.2239 25.8669 29.3022 25.4567C29.5828 24.1478 30.8664 23.0045 33.1139 22.0613C34.3124 21.5575 35.6236 21.0584 37.0107 20.5293C42.0118 18.6223 48.2343 16.2483 54.6684 11.6452C55.7243 10.9551 64.935 4.91894 67.4815 4.91894C67.5655 4.91848 67.6494 4.92541 67.7322 4.93964C67.7893 4.94879 67.844 4.96911 67.8933 4.99945C69.3379 5.87129 76.5795 10.2903 77.3133 11.5739C77.3579 11.6517 77.3789 11.7408 77.3736 11.8303C77.3683 11.9198 77.3369 12.0058 77.2834 12.0777C77.173 12.2249 74.5712 15.664 71.9327 15.664H71.7188C71.3898 15.641 70.962 15.6042 70.4582 15.5582C68.8203 15.4086 66.3451 15.1855 63.9251 15.1855C61.0197 15.1855 58.9333 15.5099 57.7141 16.1471L57.0976 16.4714C54.1002 18.0288 47.8478 21.3091 47.2451 22.6732C47.0542 23.1034 46.8747 23.5934 46.6838 24.134C46.1593 25.6016 45.6164 27.1244 44.5997 27.8445C44.522 27.9007 44.4287 27.9313 44.3328 27.9319H30.266Z" fill="white"/>
<path d="M67.4815 5.379C67.5401 5.37866 67.5986 5.38327 67.6564 5.3928C67.6564 5.3928 76.2022 10.5571 76.9154 11.8016C76.9154 11.8016 74.3735 15.1924 71.9328 15.1924H71.751C70.3524 15.0935 67.1043 14.7116 63.9298 14.7116C61.4431 14.7116 58.9978 14.9417 57.5117 15.7261C54.1233 17.5043 47.5373 20.8835 46.8242 22.4846C46.111 24.0856 45.5774 26.5815 44.3329 27.4718H30.2661C30.2661 27.4718 27.7725 24.8011 33.2934 22.4846C38.8143 20.1681 46.6677 17.9344 54.9376 12.0202C54.9376 12.0202 64.9994 5.379 67.4815 5.379V5.379ZM67.4815 4.45885C66.7086 4.45885 65.0707 4.81771 59.8121 7.90941C56.9987 9.56108 54.4545 11.2381 54.4292 11.2542L54.4016 11.2726C48.0158 15.8388 41.8232 18.1944 36.8474 20.0991C35.4557 20.6305 34.1422 21.132 32.9368 21.6357C30.5398 22.641 29.1665 23.8947 28.8513 25.36C28.757 25.8428 28.7749 26.3407 28.9037 26.8154C29.0326 27.2901 29.2689 27.7287 29.5944 28.0975C29.6802 28.19 29.7841 28.2639 29.8996 28.3145C30.0152 28.3652 30.1399 28.3915 30.2661 28.3919H44.3329C44.5244 28.3914 44.7109 28.3311 44.8665 28.2194C46.0006 27.4097 46.5688 25.8224 47.1186 24.2881C47.3049 23.7682 47.4798 23.2736 47.6661 22.8595C47.719 22.7376 48.1446 22.0452 51.2662 20.1796C53.2376 18.9995 55.5955 17.7619 57.3185 16.8579L57.935 16.5335C59.0852 15.9308 61.0957 15.6134 63.916 15.6134C66.3152 15.6134 68.7789 15.8434 70.4076 15.9837C70.9091 16.0297 71.3416 16.0688 71.6774 16.0918H71.9236C73.1704 16.0918 74.523 15.4408 75.9446 14.1595C76.5626 13.6013 77.1306 12.9901 77.6423 12.333C77.7497 12.1894 77.8128 12.0175 77.8238 11.8385C77.8349 11.6595 77.7934 11.4812 77.7044 11.3255C77.525 11.0103 77.1477 10.3524 72.5101 7.33892C70.2972 5.89888 68.1394 4.59687 68.1233 4.57847C68.0239 4.51765 67.9138 4.47628 67.799 4.45655C67.6909 4.43977 67.5817 4.43131 67.4723 4.43124L67.4815 4.45885Z" fill="#A3A3A3"/>
<path d="M53.6148 24.7596C52.628 24.7596 51.4042 24.1017 49.9895 23.3403C48.7864 22.6916 47.4222 21.9601 45.973 21.5C42.596 20.4326 41.8323 20.0623 41.8116 20.0485C41.7376 20.0116 41.6749 19.9555 41.6301 19.886C41.5852 19.8165 41.56 19.7363 41.5569 19.6536C41.5538 19.571 41.5731 19.4891 41.6127 19.4165C41.6522 19.3439 41.7106 19.2833 41.7817 19.241L49.2602 14.7898L59.0575 9.08948C59.1543 9.0337 59.268 9.01502 59.3775 9.03692C59.487 9.05882 59.5849 9.1198 59.6527 9.2085C59.7206 9.2972 59.7539 9.40755 59.7464 9.51898C59.7388 9.6304 59.6911 9.7353 59.6119 9.81409C59.0184 10.4076 57.5416 13.7914 56.7112 15.8319C55.9888 22.802 54.3418 24.5204 54.2728 24.5917C54.2093 24.654 54.1296 24.697 54.0427 24.7159C53.9013 24.746 53.7571 24.7606 53.6125 24.7596H53.6148Z" fill="#A3A3A3"/>
<path d="M59.2876 9.48743C58.3973 10.3777 56.2603 15.7191 56.2603 15.7191C55.5494 22.664 53.9461 24.265 53.9461 24.265C53.8374 24.2895 53.7262 24.3011 53.6148 24.2995C51.9678 24.2995 49.2717 22.059 46.1133 21.0606C42.7295 19.9932 42.0163 19.6367 42.0163 19.6367L49.4949 15.1855L59.2876 9.48743V9.48743ZM59.2876 8.56728C59.2366 8.56731 59.1858 8.57193 59.1357 8.58109C59.0207 8.59897 58.9104 8.63964 58.8114 8.70071L49.0325 14.3895L41.5471 18.8454C41.4059 18.9299 41.29 19.0508 41.2115 19.1954C41.133 19.34 41.0946 19.503 41.1005 19.6675C41.1064 19.8319 41.1562 19.9918 41.2449 20.1304C41.3335 20.269 41.4578 20.3813 41.6046 20.4556C41.6851 20.4947 42.4787 20.8743 45.835 21.9348C47.2405 22.3787 48.5954 23.1011 49.7709 23.7406C51.2408 24.5319 52.5106 25.2151 53.6148 25.2151C53.7934 25.2158 53.9716 25.1973 54.1462 25.1599C54.3204 25.1233 54.4802 25.037 54.6063 24.9114C54.7328 24.7849 55.1837 24.2696 55.7036 22.9239C56.373 21.1894 56.8676 18.8385 57.1712 15.9377C58.1558 13.4924 59.4716 10.6284 59.9317 10.143C60.0614 10.0172 60.1513 9.85595 60.19 9.67937C60.2287 9.50279 60.2145 9.31872 60.1493 9.15015C60.084 8.98158 59.9705 8.83596 59.823 8.73148C59.6755 8.62701 59.5004 8.5683 59.3198 8.56268L59.2876 8.56728Z" fill="#A3A3A3"/>
<path d="M60.4999 13.7132C59.5797 13.7132 59.2922 13.3314 59.2117 13.0116C59.0437 12.3491 59.7523 11.6176 60.2814 11.3301C60.723 11.1 63.8561 8.90086 65.8552 7.48383C65.9331 7.42841 66.0264 7.39866 66.122 7.39871C66.1822 7.39875 66.2417 7.41128 66.2968 7.43552C67.217 7.81738 71.8545 9.81411 72.195 11.6521C72.2242 11.8047 72.2186 11.9618 72.1788 12.1119C72.139 12.2621 72.0659 12.4013 71.965 12.5193C71.6705 12.8713 70.985 13.3406 68.4155 13.3406C67.3757 13.3406 66.3773 13.2624 65.8966 13.2256L65.6665 13.2072C65.2525 13.267 62.002 13.7132 60.4999 13.7132Z" fill="white"/>
<path d="M66.1196 7.85878C66.1196 7.85878 71.4266 10.051 71.7394 11.7349C71.912 12.6712 70.1108 12.8851 68.42 12.8851C67.0697 12.8851 65.7884 12.7517 65.6595 12.7517C65.6595 12.7517 62.0687 13.2578 60.5067 13.2578C58.9447 13.2578 59.8833 12.0777 60.5067 11.7395C61.1301 11.4014 66.1288 7.86338 66.1288 7.86338L66.1196 7.85878ZM66.1288 6.94323C65.9376 6.94313 65.751 7.00263 65.5951 7.11346C63.6812 8.46838 60.4883 10.7043 60.0742 10.9298C59.4439 11.2702 58.533 12.1697 58.7768 13.1289C58.8757 13.52 59.2369 14.1779 60.5113 14.1779C61.9973 14.1779 65.1236 13.7546 65.7033 13.6741L65.8804 13.6879C66.3658 13.727 67.3756 13.8052 68.4338 13.8052C70.5639 13.8052 71.7693 13.4993 72.3444 12.8161C72.488 12.6465 72.5914 12.4468 72.6472 12.2317C72.7029 12.0167 72.7095 11.7918 72.6665 11.5739C72.5492 10.9367 72.0707 9.91301 69.2826 8.35336C68.3727 7.85704 67.4375 7.40862 66.4808 7.00994C66.3703 6.96275 66.2513 6.93849 66.1311 6.93863L66.1288 6.94323Z" fill="#A3A3A3"/>
<path d="M66.6786 10.893C66.6785 11.0743 66.7142 11.2538 66.7836 11.4213C66.8529 11.5888 66.9546 11.7409 67.0827 11.8691C67.2109 11.9973 67.3631 12.099 67.5306 12.1684C67.698 12.2378 67.8775 12.2735 68.0588 12.2735C68.2401 12.2735 68.4196 12.2378 68.5871 12.1684C68.7546 12.099 68.9067 11.9973 69.0349 11.8691C69.1631 11.7409 69.2647 11.5888 69.3341 11.4213C69.4034 11.2538 69.4391 11.0743 69.439 10.893C69.4391 10.7117 69.4034 10.5322 69.3341 10.3647C69.2647 10.1972 69.1631 10.045 69.0349 9.91682C68.9067 9.78862 68.7546 9.68692 68.5871 9.61754C68.4196 9.54816 68.2401 9.51245 68.0588 9.51245C67.8775 9.51245 67.698 9.54816 67.5306 9.61754C67.3631 9.68692 67.2109 9.78862 67.0827 9.91682C66.9546 10.045 66.8529 10.1972 66.7836 10.3647C66.7142 10.5322 66.6785 10.7117 66.6786 10.893V10.893Z" fill="white"/>
<path d="M68.0589 9.74279C68.2864 9.74279 68.5088 9.81025 68.6979 9.93663C68.8871 10.063 69.0345 10.2427 69.1216 10.4528C69.2086 10.663 69.2314 10.8943 69.187 11.1174C69.1426 11.3405 69.0331 11.5454 68.8722 11.7063C68.7114 11.8671 68.5064 11.9767 68.2833 12.0211C68.0602 12.0654 67.8289 12.0427 67.6188 11.9556C67.4086 11.8686 67.229 11.7211 67.1026 11.532C66.9762 11.3428 66.9087 11.1205 66.9087 10.893C66.9087 10.5879 67.0299 10.2954 67.2456 10.0797C67.4613 9.86397 67.7539 9.74279 68.0589 9.74279V9.74279ZM68.0589 9.28271C67.7404 9.28271 67.4291 9.37716 67.1643 9.55409C66.8995 9.73103 66.6931 9.98252 66.5712 10.2768C66.4494 10.571 66.4175 10.8948 66.4796 11.2071C66.5417 11.5195 66.6951 11.8064 66.9203 12.0316C67.1455 12.2568 67.4324 12.4102 67.7448 12.4723C68.0571 12.5344 68.3809 12.5025 68.6751 12.3807C68.9694 12.2588 69.2209 12.0524 69.3978 11.7876C69.5747 11.5228 69.6692 11.2115 69.6692 10.893C69.6692 10.4659 69.4995 10.0563 69.1975 9.75435C68.8956 9.45237 68.486 9.28271 68.0589 9.28271V9.28271Z" fill="#A3A3A3"/>
<path d="M40.2243 26.0754C40.2243 26.4415 40.3697 26.7926 40.6286 27.0514C40.8874 27.3103 41.2385 27.4557 41.6045 27.4557C41.9706 27.4557 42.3217 27.3103 42.5805 27.0514C42.8393 26.7926 42.9848 26.4415 42.9848 26.0754C42.9848 25.7094 42.8393 25.3583 42.5805 25.0995C42.3217 24.8406 41.9706 24.6952 41.6045 24.6952C41.2385 24.6952 40.8874 24.8406 40.6286 25.0995C40.3697 25.3583 40.2243 25.7094 40.2243 26.0754V26.0754Z" fill="white"/>
<path d="M41.6046 24.9253C41.8321 24.9253 42.0544 24.9927 42.2436 25.1191C42.4327 25.2455 42.5802 25.4251 42.6672 25.6353C42.7543 25.8455 42.777 26.0767 42.7327 26.2998C42.6883 26.5229 42.5787 26.7279 42.4179 26.8887C42.257 27.0496 42.0521 27.1591 41.829 27.2035C41.6059 27.2479 41.3746 27.2251 41.1644 27.1381C40.9543 27.051 40.7746 26.9036 40.6482 26.7144C40.5219 26.5253 40.4544 26.3029 40.4544 26.0754C40.4544 25.7704 40.5756 25.4778 40.7913 25.2621C41.007 25.0464 41.2995 24.9253 41.6046 24.9253ZM41.6046 24.4652C41.2861 24.4652 40.9748 24.5596 40.71 24.7366C40.4452 24.9135 40.2388 25.165 40.1169 25.4592C39.995 25.7535 39.9631 26.0772 40.0253 26.3896C40.0874 26.7019 40.2408 26.9889 40.466 27.2141C40.6912 27.4393 40.9781 27.5926 41.2904 27.6548C41.6028 27.7169 41.9266 27.685 42.2208 27.5631C42.515 27.4412 42.7665 27.2349 42.9435 26.9701C43.1204 26.7052 43.2148 26.3939 43.2148 26.0754C43.2148 25.864 43.1732 25.6546 43.0923 25.4592C43.0113 25.2639 42.8927 25.0863 42.7432 24.9368C42.5937 24.7873 42.4162 24.6687 42.2208 24.5878C42.0254 24.5068 41.816 24.4652 41.6046 24.4652V24.4652Z" fill="#A3A3A3"/>
<path d="M62.0779 11.8131C62.0778 11.9642 62.1076 12.1138 62.1654 12.2534C62.2231 12.3929 62.3079 12.5198 62.4147 12.6266C62.5215 12.7334 62.6483 12.8182 62.7878 12.876C62.9274 12.9338 63.077 12.9636 63.2281 12.9636C63.3791 12.9636 63.5287 12.9338 63.6683 12.876C63.8079 12.8182 63.9347 12.7334 64.0415 12.6266C64.1483 12.5198 64.233 12.3929 64.2908 12.2534C64.3486 12.1138 64.3783 11.9642 64.3783 11.8131C64.3783 11.6621 64.3486 11.5125 64.2908 11.3729C64.233 11.2333 64.1483 11.1065 64.0415 10.9996C63.9347 10.8928 63.8079 10.8081 63.6683 10.7502C63.5287 10.6924 63.3791 10.6627 63.2281 10.6627C63.077 10.6627 62.9274 10.6924 62.7878 10.7502C62.6483 10.8081 62.5215 10.8928 62.4147 10.9996C62.3079 11.1065 62.2231 11.2333 62.1654 11.3729C62.1076 11.5125 62.0778 11.6621 62.0779 11.8131V11.8131Z" fill="white"/>
<path d="M63.2281 10.893C63.4101 10.893 63.588 10.947 63.7393 11.0481C63.8906 11.1492 64.0085 11.2929 64.0782 11.461C64.1478 11.6292 64.166 11.8142 64.1305 11.9927C64.095 12.1712 64.0074 12.3351 63.8787 12.4638C63.75 12.5925 63.5861 12.6801 63.4076 12.7156C63.2291 12.7511 63.0441 12.7329 62.8759 12.6633C62.7078 12.5936 62.5641 12.4757 62.463 12.3244C62.3619 12.173 62.3079 11.9951 62.3079 11.8131C62.3079 11.5691 62.4049 11.3351 62.5774 11.1625C62.75 10.9899 62.984 10.893 63.2281 10.893V10.893ZM63.2281 10.4329C62.9551 10.4329 62.6882 10.5139 62.4613 10.6655C62.2343 10.8172 62.0574 11.0328 61.9529 11.285C61.8484 11.5372 61.8211 11.8147 61.8744 12.0824C61.9276 12.3502 62.0591 12.5961 62.2521 12.7891C62.4451 12.9821 62.6911 13.1136 62.9588 13.1669C63.2265 13.2201 63.504 13.1928 63.7563 13.0883C64.0085 12.9838 64.224 12.8069 64.3757 12.58C64.5273 12.353 64.6083 12.0861 64.6083 11.8131C64.6083 11.4471 64.4629 11.096 64.204 10.8372C63.9452 10.5783 63.5941 10.4329 63.2281 10.4329V10.4329Z" fill="#A3A3A3"/>
<path d="M34.9335 25.1553C34.9334 25.3064 34.9632 25.456 35.0209 25.5956C35.0787 25.7351 35.1634 25.862 35.2703 25.9688C35.3771 26.0756 35.5039 26.1604 35.6434 26.2182C35.783 26.276 35.9326 26.3058 36.0837 26.3058C36.2347 26.3058 36.3843 26.276 36.5239 26.2182C36.6634 26.1604 36.7902 26.0756 36.8971 25.9688C37.0039 25.862 37.0886 25.7351 37.1464 25.5956C37.2042 25.456 37.2339 25.3064 37.2338 25.1553C37.2339 25.0042 37.2042 24.8547 37.1464 24.7151C37.0886 24.5755 37.0039 24.4487 36.8971 24.3418C36.7902 24.235 36.6634 24.1503 36.5239 24.0924C36.3843 24.0346 36.2347 24.0049 36.0837 24.0049C35.9326 24.0049 35.783 24.0346 35.6434 24.0924C35.5039 24.1503 35.3771 24.235 35.2703 24.3418C35.1634 24.4487 35.0787 24.5755 35.0209 24.7151C34.9632 24.8547 34.9334 25.0042 34.9335 25.1553Z" fill="white"/>
<path d="M36.0837 24.2352C36.2656 24.2352 36.4435 24.2891 36.5949 24.3903C36.7462 24.4914 36.8641 24.6351 36.9338 24.8032C37.0034 24.9713 37.0216 25.1563 36.9861 25.3348C36.9506 25.5133 36.863 25.6773 36.7343 25.806C36.6056 25.9347 36.4417 26.0223 36.2632 26.0578C36.0847 26.0933 35.8997 26.0751 35.7315 26.0054C35.5634 25.9358 35.4197 25.8179 35.3186 25.6665C35.2175 25.5152 35.1635 25.3373 35.1635 25.1553C35.1635 24.9113 35.2605 24.6772 35.433 24.5047C35.6056 24.3321 35.8396 24.2352 36.0837 24.2352ZM36.0837 23.7751C35.8107 23.7751 35.5438 23.8561 35.3168 24.0077C35.0899 24.1594 34.913 24.3749 34.8085 24.6271C34.704 24.8793 34.6767 25.1569 34.73 25.4246C34.7832 25.6923 34.9147 25.9383 35.1077 26.1313C35.3007 26.3243 35.5466 26.4558 35.8144 26.509C36.0821 26.5623 36.3596 26.535 36.6118 26.4305C36.864 26.326 37.0796 26.1491 37.2313 25.9221C37.3829 25.6952 37.4639 25.4283 37.4639 25.1553C37.4639 24.7893 37.3185 24.4382 37.0596 24.1794C36.8008 23.9205 36.4497 23.7751 36.0837 23.7751ZM68.0589 11.5831C67.9608 11.5839 67.8638 11.5638 67.7741 11.5241C67.6845 11.4845 67.6043 11.4261 67.539 11.3531L62.9382 6.06222C62.8724 5.995 62.8211 5.91505 62.7873 5.82727C62.7536 5.73949 62.7381 5.64574 62.7419 5.55177C62.7457 5.4578 62.7686 5.36559 62.8094 5.28081C62.8501 5.19603 62.9077 5.12047 62.9786 5.05876C63.0496 4.99705 63.1325 4.9505 63.2221 4.92197C63.3117 4.89343 63.4062 4.88351 63.4998 4.89282C63.5934 4.90213 63.684 4.93047 63.7663 4.97611C63.8485 5.02174 63.9206 5.08369 63.978 5.15817L68.5787 10.449C68.6679 10.5487 68.7261 10.6721 68.7465 10.8042C68.7668 10.9364 68.7483 11.0715 68.6932 11.1934C68.6382 11.3152 68.5489 11.4184 68.4363 11.4905C68.3237 11.5625 68.1925 11.6003 68.0589 11.5992V11.5831ZM63.4581 12.7333C63.3609 12.7334 63.2647 12.713 63.1759 12.6734C63.0871 12.6337 63.0077 12.5758 62.9428 12.5033L59.2622 8.3626C59.2018 8.29493 59.1553 8.21602 59.1254 8.13038C59.0955 8.04475 59.0827 7.95405 59.0878 7.86348C59.0929 7.77291 59.1159 7.68424 59.1553 7.60252C59.1947 7.52081 59.2498 7.44765 59.3174 7.38724C59.3851 7.32682 59.464 7.28032 59.5496 7.2504C59.6353 7.22047 59.726 7.20771 59.8165 7.21284C59.9071 7.21796 59.9958 7.24088 60.0775 7.28028C60.1592 7.31967 60.2324 7.37478 60.2928 7.44245L63.9734 11.5831C64.0337 11.6509 64.0801 11.7299 64.1099 11.8156C64.1397 11.9014 64.1523 11.9921 64.147 12.0827C64.1416 12.1733 64.1185 12.262 64.0788 12.3436C64.0391 12.4253 63.9838 12.4983 63.9159 12.5585C63.7898 12.6708 63.6269 12.733 63.4581 12.7333V12.7333ZM41.6529 26.9197C41.5293 26.9199 41.408 26.8869 41.3016 26.8241C41.1952 26.7614 41.1076 26.6713 41.0479 26.5632L37.6755 20.4143C37.5877 20.2535 37.5673 20.0644 37.6188 19.8886C37.6704 19.7128 37.7896 19.5647 37.9504 19.4769C38.1112 19.389 38.3002 19.3686 38.476 19.4202C38.6518 19.4717 38.8 19.591 38.8878 19.7517L42.2579 25.8983C42.3017 25.9779 42.3293 26.0653 42.3393 26.1556C42.3492 26.2459 42.3413 26.3373 42.3158 26.4245C42.2904 26.5117 42.248 26.593 42.1911 26.6637C42.1342 26.7345 42.0638 26.7934 41.9841 26.8369C41.8824 26.8918 41.7685 26.9203 41.6529 26.9197V26.9197Z" fill="#A3A3A3"/>
<path d="M36.0837 25.8454C35.9576 25.8455 35.8339 25.811 35.726 25.7457C35.6181 25.6804 35.5302 25.5868 35.4718 25.475L33.5855 21.875C33.5385 21.7944 33.5083 21.7051 33.4968 21.6125C33.4852 21.52 33.4926 21.426 33.5184 21.3364C33.5442 21.2467 33.5879 21.1632 33.6468 21.0909C33.7058 21.0187 33.7788 20.9591 33.8615 20.9158C33.9441 20.8726 34.0347 20.8465 34.1277 20.8392C34.2207 20.8319 34.3142 20.8436 34.4026 20.8734C34.491 20.9033 34.5724 20.9508 34.6419 21.013C34.7114 21.0752 34.7675 21.1509 34.807 21.2355L36.6956 24.8401C36.7769 25.0013 36.7918 25.1878 36.7372 25.3598C36.6826 25.5318 36.5628 25.6756 36.4034 25.7603C36.3057 25.8151 36.1957 25.8443 36.0837 25.8454V25.8454Z" fill="#A3A3A3"/>
<path d="M52.6464 18.0241C52.5479 18.0253 52.4504 18.0053 52.3604 17.9656C52.2703 17.926 52.1898 17.8675 52.1242 17.7941L49.1337 14.3435C49.0138 14.2051 48.9538 14.0246 48.967 13.8419C48.9802 13.6592 49.0654 13.4892 49.2038 13.3693C49.3423 13.2495 49.5228 13.1895 49.7055 13.2027C49.8882 13.2158 50.0582 13.301 50.1781 13.4395L53.1685 16.8901C53.2578 16.9899 53.3161 17.1135 53.3364 17.2458C53.3566 17.3782 53.3379 17.5136 53.2826 17.6355C53.2272 17.7574 53.1376 17.8606 53.0246 17.9324C52.9117 18.0043 52.7802 18.0418 52.6464 18.0403V18.0241Z" fill="white"/>
<path d="M111.743 43.0154C111.743 43.0798 110.968 43.0683 109.583 43.0039L103.726 42.7118C101.256 42.5921 98.3111 42.4656 95.04 42.3713L94.4281 42.3552C94.2532 42.3453 94.0779 42.3569 93.9059 42.3897C93.7872 42.408 93.6784 42.4665 93.5976 42.5553C93.5126 42.6667 93.4558 42.7969 93.432 42.9349C93.398 43.1161 93.3826 43.3003 93.386 43.4847C93.3853 43.6832 93.3983 43.8815 93.4251 44.0782C93.4771 44.4784 93.5799 44.8703 93.731 45.2445C93.8832 45.6266 94.0851 45.987 94.3314 46.3164C94.4552 46.4786 94.5897 46.6323 94.734 46.7765C94.8812 46.926 95.0492 47.0802 95.224 47.2527C95.4153 47.436 95.585 47.6406 95.7301 47.8623C95.8122 47.9891 95.8794 48.1249 95.9302 48.2672C95.9826 48.4157 96.0158 48.5703 96.0291 48.7272C96.0645 49.0675 95.9834 49.4098 95.7991 49.698C95.6928 49.8528 95.5538 49.9824 95.3919 50.0776C95.2482 50.1581 95.0931 50.2163 94.9318 50.2501C94.6722 50.2956 94.4086 50.3149 94.1451 50.3076H93.4251L92.712 50.28C92.4819 50.28 92.2404 50.2455 92.0058 50.2271C91.0718 50.142 90.1655 50.0132 89.2752 49.8498C87.5039 49.5324 85.8247 49.139 84.2328 48.8561C82.7346 48.5657 81.2132 48.4117 79.6873 48.396C78.3614 48.411 77.0404 48.5597 75.7444 48.84C73.8574 49.2591 72.0407 49.9479 70.35 50.885C69.1492 51.5521 68.5258 52.003 68.4798 51.9432C68.4338 51.8834 68.9974 51.3543 70.166 50.579C71.8316 49.4944 73.6652 48.6931 75.5926 48.2074C76.9264 47.8731 78.2922 47.6826 79.6666 47.6392C81.2435 47.6176 82.8188 47.7478 84.3708 48.0279C86.0018 48.2925 87.6834 48.6697 89.4316 48.9688C90.3012 49.1221 91.1861 49.2402 92.0863 49.323C92.3163 49.3368 92.5463 49.3621 92.7626 49.3713L93.4412 49.3966H94.1313C94.3383 49.4032 94.5455 49.3901 94.7501 49.3575C94.809 49.3519 94.866 49.3343 94.9179 49.3058C94.9697 49.2773 95.0151 49.2386 95.0515 49.1919C95.1163 49.0792 95.1422 48.9482 95.1251 48.8193C95.1175 48.7408 95.1005 48.6636 95.0745 48.5892C95.0477 48.5085 95.0114 48.4313 94.9663 48.3592C94.8584 48.192 94.7319 48.0377 94.5891 47.8991C94.4373 47.7473 94.267 47.5932 94.0922 47.416C93.9196 47.2374 93.759 47.0476 93.6114 46.8478C93.0358 46.0635 92.6708 45.1448 92.551 44.1794C92.523 43.9435 92.51 43.7061 92.5118 43.4686C92.5114 43.2221 92.536 42.9762 92.5855 42.7348C92.6421 42.4522 92.7695 42.1886 92.9558 41.9687C93.162 41.7434 93.4356 41.5909 93.7356 41.534C93.9753 41.4898 94.2194 41.4752 94.4626 41.4903L95.0837 41.5156C98.3594 41.6559 101.308 41.8514 103.781 42.0539C106.254 42.2563 108.249 42.4679 109.627 42.6381C111.005 42.8084 111.748 42.9533 111.743 43.0154V43.0154ZM55.1147 50.2271C55.1147 50.2593 54.8846 50.2731 54.4844 50.2685L53.7275 50.2547H52.697C51.1465 50.2547 48.9059 50.3605 46.1386 50.6204L41.6069 51.0575C39.9736 51.2024 38.2184 51.3405 36.362 51.3773H34.9473C34.4293 51.37 33.9147 51.2926 33.4175 51.1472C33.1435 51.0656 32.883 50.9439 32.6446 50.7861C32.3844 50.6127 32.1673 50.3821 32.0097 50.1121C31.8616 49.8464 31.7715 49.5524 31.7452 49.2494C31.7227 48.9832 31.7158 48.7159 31.7245 48.4489C31.7245 47.952 31.7014 47.5471 31.4944 47.2987C31.2874 47.0503 30.8779 46.8938 30.4178 46.8386C29.9177 46.7933 29.4156 46.7733 28.9134 46.7788H27.3422C25.2328 46.8179 23.1648 46.9444 21.1565 47.0089C20.1513 47.0457 19.1644 47.0733 18.1914 47.071C17.706 47.071 17.2252 47.071 16.7513 47.0526C16.2774 47.0342 15.8013 47.025 15.3205 46.9698C14.8296 46.9226 14.3475 46.8088 13.8874 46.6316C13.4269 46.4519 13.0069 46.1821 12.652 45.838C12.3162 45.5136 12.0401 45.1824 11.7572 44.9178C11.6077 44.7867 11.4651 44.6487 11.3132 44.5268C11.1614 44.4048 11.0073 44.2806 10.8394 44.1794C10.1969 43.7624 9.51598 43.408 8.80582 43.1212C8.11571 42.8291 7.4256 42.576 6.78379 42.3069C6.15532 42.0516 5.54304 41.7582 4.9504 41.4282C4.41782 41.1271 3.91889 40.77 3.46205 40.3631C2.73967 39.7061 2.15347 38.9136 1.73677 38.0305C1.46948 37.4814 1.28054 36.8976 1.17548 36.296C1.10647 35.8911 1.11797 35.6772 1.15018 35.6772C1.18238 35.6772 1.23759 35.8819 1.36411 36.2684C1.53758 36.8277 1.76886 37.3674 2.05422 37.8787C2.5032 38.6827 3.09575 39.3977 3.80251 39.9881C4.24456 40.3483 4.72249 40.662 5.22874 40.9244C5.80996 41.2162 6.40752 41.4743 7.01843 41.6973C7.66254 41.9411 8.35265 42.1781 9.07037 42.4587C9.83206 42.7467 10.564 43.108 11.2557 43.5376C11.4398 43.648 11.61 43.7883 11.7894 43.9126C11.9688 44.0368 12.1276 44.2001 12.2978 44.345C12.6244 44.6533 12.9051 44.9799 13.2041 45.2652C13.4844 45.5388 13.818 45.7518 14.1841 45.8909C14.5806 46.0287 14.9937 46.113 15.4125 46.1416C15.8473 46.1853 16.3027 46.1945 16.772 46.2014C17.2413 46.2083 17.7129 46.2014 18.1914 46.2014C19.146 46.2014 20.1237 46.16 21.122 46.1163C23.1165 46.0312 25.1914 45.9001 27.333 45.8587C27.8667 45.8587 28.4004 45.8472 28.9295 45.8587L29.7208 45.8748C29.997 45.8766 30.2727 45.895 30.5467 45.93C30.8416 45.9658 31.1307 46.0392 31.407 46.1485C31.7164 46.2692 31.9902 46.4662 32.2029 46.7213C32.413 46.9812 32.5496 47.2925 32.5986 47.6231C32.6387 47.8995 32.6526 48.1791 32.64 48.4581C32.6262 48.9665 32.64 49.392 32.801 49.6842C33.0095 50.0016 33.3298 50.2291 33.6982 50.3214C34.1177 50.4437 34.5517 50.5094 34.9887 50.5169C35.4488 50.5169 35.9088 50.5169 36.3689 50.5307C38.1931 50.5169 39.9322 50.4088 41.5609 50.3007C43.1895 50.1926 44.7124 50.0707 46.1064 49.9763C48.3086 49.8105 50.5191 49.7851 52.7246 49.9004L53.7597 49.9901C54.0588 50.02 54.3118 50.0638 54.5166 50.0937C54.9076 50.1466 55.1193 50.1949 55.1147 50.2271V50.2271Z" fill="#A3A3A3"/>
</svg>
